<svg width="460" height="346" fill="none" xmlns="http://www.w3.org/2000/svg"><path d="M223.422 332.895 16.744 210.988c-6.578-3.684-12.224-9.744-5.807-13.703L218.362 77.926c3.116-1.928 7.843-3.19 11.005-1.354l216.959 125.717c6.578 3.81 7.763 14.46 1.15 18.282L250.7 332.7a27.527 27.527 0 0 1-27.278.195z" fill="#DD6F31"/><path d="m210.864 196.895-3.6 5.279-91.022 45.586 10.649 22.288 88.343-56.145c-3.438-6.266.966-12.108-4.37-17.008z" fill="url(#a)"/><path d="m275.701 268.843-12.776-2.502-57.501 36.439 32.741 16.928 46.563-43.968c-3.484-6.266-3.725-1.997-9.027-6.897z" fill="url(#b)"/><path d="m213.406 21.85 7.67 3.398-7.372 3.225-1.771-3.8" fill="#F7941D"/><path d="m143.52 246.738 63.722-37.012a16.97 16.97 0 0 0 6.178-6.198 16.939 16.939 0 0 0 2.263-8.447l2.058-168.33c0-4.418-6.9-6.668-10.683-4.418l-65.93 38.814a10.912 10.912 0 0 0-3.933 3.983 10.882 10.882 0 0 0-1.437 5.405v171.762c.001.905.242 1.794.698 2.577a5.176 5.176 0 0 0 7.064 1.864z" fill="#F7941D"/><path d="m138.414 246.796 8.338 4.395-.967-5.795-5.795-1.045" fill="#F7941D"/><path d="m151.512 250.962 63.722-37.059a16.965 16.965 0 0 0 6.179-6.198 16.924 16.924 0 0 0 2.262-8.446V29.322a4.492 4.492 0 0 0-2.273-3.917 4.515 4.515 0 0 0-4.535.038L149.12 65.37a10.893 10.893 0 0 0-5.37 9.388v171.75a5.146 5.146 0 0 0 2.59 4.468 5.175 5.175 0 0 0 5.172-.015z" fill="#F4F4F4"/><path d="m147.786 85.134 72.6-41.546v148.659l-72.6 41.878V85.134z" fill="#F7941D"/><path d="M194.108 220.153c.579-2.422-.408-4.734-2.206-5.162-1.797-.429-3.725 1.188-4.304 3.611-.58 2.423.407 4.734 2.205 5.163 1.798.428 3.725-1.189 4.305-3.612z" fill="#BABABC"/><path d="M193.568 50.738a1.621 1.621 0 0 1-.817 1.4l-14.03 8.034a1.623 1.623 0 0 1-2.426-1.4v-.345a1.611 1.611 0 0 1 .839-1.411l14.03-7.701a1.627 1.627 0 0 1 2.193.619c.139.245.212.522.211.804zM201.516 47.014c.414-1.117.084-2.27-.738-2.573-.822-.304-1.825.356-2.239 1.474-.414 1.117-.084 2.27.738 2.573.822.304 1.824-.356 2.239-1.474z" fill="#CCC"/><path d="M160.678 88.634v29.84a2.658 2.658 0 0 1-1.357 2.295l-48.702 27.521a2.665 2.665 0 0 1-2.647-.013 2.663 2.663 0 0 1-1.332-2.282v-28.348a2.658 2.658 0 0 1 1.299-2.295l48.703-29.002a2.669 2.669 0 0 1 4.036 2.284zM242.052 104.277v1.538a14.923 14.923 0 0 1-7.452 12.865l-87.262 50.877a9.112 9.112 0 0 1-9.108.027 9.081 9.081 0 0 1-4.565-7.866v-1.583c0-2.681.709-5.315 2.053-7.636a15.286 15.286 0 0 1 5.606-5.586l87.399-50.28a8.916 8.916 0 0 1 8.863.005 8.887 8.887 0 0 1 4.466 7.639z" fill="#FFC745"/><path d="m228.701 96.576-11.351 6.519v25.628l17.25-10.054a14.935 14.935 0 0 0 5.419-5.449 14.903 14.903 0 0 0 1.987-7.417v-1.526a8.89 8.89 0 0 0-4.435-7.666 8.916 8.916 0 0 0-8.87-.035z" fill="#C1272D"/><path d="M229.533 109.543c1.216-3.003.373-6.175-1.883-7.084-2.255-.91-5.069.788-6.285 3.791-1.216 3.003-.373 6.175 1.883 7.084 2.255.909 5.069-.788 6.285-3.791z" fill="#C1272D" stroke="#fff" stroke-width="2.03" stroke-miterlimit="10"/><path d="M162.776 91.414c1.463-4.677.015-9.29-3.235-10.302-3.249-1.012-7.07 1.958-8.533 6.635-1.463 4.677-.015 9.29 3.235 10.302 3.249 1.013 7.07-1.958 8.533-6.635z" fill="#C1272D"/><path d="m175.95 84.95 33.695-19.281a1.72 1.72 0 0 0-.453-3.111 1.725 1.725 0 0 0-1.283.139l-33.695 19.28a1.72 1.72 0 0 0 .452 3.112c.43.121.89.072 1.284-.139zM175.95 94.59l33.695-19.28a1.72 1.72 0 0 0-.453-3.112 1.725 1.725 0 0 0-1.283.14l-33.695 19.28a1.72 1.72 0 0 0 .452 3.112c.43.12.89.071 1.284-.14zM175.95 104.231l33.695-19.28a1.72 1.72 0 0 0-.453-3.112 1.725 1.725 0 0 0-1.283.139l-33.695 19.281a1.719 1.719 0 0 0 .452 3.111c.43.121.89.072 1.284-.139z" fill="#FFEED9"/><path d="m408.25 190.801-3.6 5.279L345 227.354l25.61 14.323 46.472-37.804c-3.427-6.267-3.588-8.172-8.832-13.072z" fill="url(#c)"/><path d="m396.21 183.329 3.714 17.215a3.893 3.893 0 0 0 2.093 2.674c2.162 1.056 6.613 2.158 15.077.62a3.919 3.919 0 0 0 3.128-3.007l3.806-17.502" fill="#F7941D"/><path d="M410.113 188.976c7.679 0 13.903-2.544 13.903-5.681 0-3.138-6.224-5.681-13.903-5.681s-13.903 2.543-13.903 5.681c0 3.137 6.224 5.681 13.903 5.681z" fill="#124577"/><path d="M402.028 170.498a4.456 4.456 0 0 1-1.609-1.492l-7.832-12.074c-3.622-5.6-4.945-45.758 4.6-46.263 7.544-.401 15.307 17.216 18.009 22.346 2.53 4.82 5.301 9.95 6.808 15.207 2.3 7.919-2.886 14.851-7.774 21.14-2.392 2.995-9.062 2.869-12.202 1.136z" fill="#66C652"/><path d="M406.698 178.417c1.05.765 2.081 1.53 3.093 2.295a147.239 147.239 0 0 0-7.348-52.793 1.611 1.611 0 0 0-3.071.964 144.125 144.125 0 0 1 7.326 49.534z" fill="#124577"/><path d="M417.749 167.262a2.841 2.841 0 0 1-.184-1.389l1.069-9.124c.495-4.224 16.204-24.515 21.08-20.911 3.875 2.869.529 14.679-.242 18.306a53.24 53.24 0 0 1-2.84 10.237c-2.105 4.82-7.475 6.14-12.432 7.242-2.392.528-5.6-2.227-6.451-4.361z" fill="#49B230"/><path d="M432.193 146.948c-7 11.8-12.597 24.376-16.675 37.471.799.438 1.567.929 2.3 1.469a173.585 173.585 0 0 1 16.698-37.689c.862-1.458-1.46-2.743-2.323-1.251z" fill="#124577"/><path d="m117.68 123.65 33.695-19.281a1.717 1.717 0 0 0-.453-3.112 1.732 1.732 0 0 0-1.284.139l-33.695 19.281a1.717 1.717 0 0 0-.568 2.322 1.728 1.728 0 0 0 2.305.651zM117.68 133.256l33.695-19.281a1.715 1.715 0 0 0 .45-2.248 1.729 1.729 0 0 0-2.187-.702l-33.695 19.281a1.717 1.717 0 0 0-.568 2.322 1.728 1.728 0 0 0 2.305.651v-.023zM158.642 180.46l20.896-11.649c3.875-2.158.402-8.114-3.45-5.945l-20.896 11.649c-3.875 2.158-.402 8.114 3.45 5.945zM155.549 190.881l43.884-24.446c1.449-.815.15-3.041-1.311-2.226l-43.884 24.445c-1.449.815-.149 3.042 1.311 2.227z" fill="#FFEED9"/><path d="m229.195 111.875 5.118 3.443c1.84 1.251 3.576-1.733 1.736-2.973l-5.117-3.443c-1.84-1.251-3.577 1.733-1.737 2.973z" fill="#fff"/><path d="m147.12 160.043 65.182-36.256" stroke="#fff" stroke-width="1.015" stroke-miterlimit="10"/><path d="m207.265 164.53-10.615 37.988s.897 10.329 14.341 6.014l9.2-40.077s-2.059-8.894-12.926-3.925z" fill="#FF7B39"/><path d="m223.1 146.603-6.658 22.518s-5.75 2.926-7.498-2.64l5.451-21.955 8.705 2.077z" fill="#3B125E"/><path d="M223.1 146.603a18.855 18.855 0 0 1-10.626-.413c-13.34-4.59-18.572-23.344-11.914-42.762 6.659-19.42 22.345-31.056 35.65-26.489 6.659 2.296 11.5 8.183 13.616 16.642 1.978 7.873 1.369 17.146-1.713 26.109-3.082 8.964-8.303 16.676-14.697 21.68a27.315 27.315 0 0 1-10.316 5.233zm4.324-62.617c-7.601 1.825-15.651 10.398-19.55 21.932-5.094 14.851-1.828 29.978 7.142 33.042 4.117 1.411 9.004.126 13.8-3.592 5.244-4.109 9.568-10.548 12.167-18.134s3.151-15.321 1.529-21.806c-1.472-5.864-4.6-9.858-8.671-11.27a11.269 11.269 0 0 0-6.371-.126l-.046-.046z" fill="#3B125E"/><path d="M225.55 87.52c1.989-1.457 6.497.942 7.923 2.296 11.834 11.052 6.141 31.733-4.105 42.269-3.841 3.948-12.892 9.354-16.227 7.093 0 0 14.801 9.985 25.369-1.045 10.569-11.029 13.145-32.353 13.145-32.353l-.656-11.258-3.875-7.598-3.933-4.19-9.741-1.02-7.9 5.807z" fill="#3B125E"/><path d="M226.746 147.751a18.863 18.863 0 0 1-10.626-.413c-13.34-4.591-18.573-23.344-11.914-42.763 6.658-19.418 22.344-31.056 35.65-26.488 6.658 2.295 11.5 8.183 13.616 16.641 1.978 7.873 1.368 17.147-1.714 26.11-3.082 8.963-8.257 16.584-14.651 21.634a27.318 27.318 0 0 1-10.361 5.279zm4.324-62.617c-7.602 1.825-15.652 10.398-19.55 21.932-5.095 14.851-1.829 29.977 7.141 33.042 4.117 1.411 9.005.126 13.8-3.593 5.244-4.108 9.568-10.547 12.167-18.133 2.599-7.586 3.151-15.322 1.53-21.806-1.472-5.865-4.6-9.858-8.671-11.27a11.27 11.27 0 0 0-6.417-.23v.058z" fill="#662D91"/><path d="M243.892 143.562c.426-.126-3.301-5.245-3.6-5.738a92.902 92.902 0 0 1-4.91-8.803.64.64 0 0 0-.218-.241 15.996 15.996 0 0 0-.92-1.687.764.764 0 0 0-.833-.335.753.753 0 0 0-.57.691 8.723 8.723 0 0 0 1.15 4.912c-.368.401-.771.837-1.15 1.297a.309.309 0 0 1 .115.344 2.295 2.295 0 0 1-.368.688 1.634 1.634 0 0 1-.334.402.355.355 0 0 1-.196.08 2.295 2.295 0 0 0 .484 1.986 2.981 2.981 0 0 0-.139 2.146v.092h.116a21.939 21.939 0 0 1 2.667 1.836.329.329 0 0 1 .087.3.34.34 0 0 1-.201.24c.713.342 1.446.641 2.196.895a.63.63 0 0 0 .506 0c.103.092.184.195.287.275a.758.758 0 0 0 1.254-.31.835.835 0 0 0 0-.264l.265.31a.847.847 0 0 0 .125.728.87.87 0 0 0 .645.363.877.877 0 0 0 .966-.689.994.994 0 0 0 0-.344l.575.872a.21.21 0 0 0 .213.095.216.216 0 0 0 .109-.056.207.207 0 0 0 .057-.108.155.155 0 0 0 0-.08c.304.499.569 1.021.794 1.561 3.991 5.772.932-1.263.828-1.458zm-3.312-.161a.47.47 0 0 1-.472-.436.767.767 0 0 0 .645-.126.192.192 0 0 0 .231.051.2.2 0 0 0 .068-.051.486.486 0 0 1-.101.394.476.476 0 0 1-.371.168z" fill="#FCBF81"/><path d="M242.892 143.424a8.13 8.13 0 0 1-2.013-2.295 1.58 1.58 0 0 0-1.581-.808c-.209.027-.41.094-.592.2a9.03 9.03 0 0 1-.092-1.24c0-2.112-3.335-2.146-3.301 0a8.021 8.021 0 0 0 1.277 4.706 13.479 13.479 0 0 0 3.588 3.167 1.695 1.695 0 0 0 2.215-.506c.159-.228.259-.492.292-.768l.149-.114a1.658 1.658 0 0 0 .058-2.342z" fill="#FCBF81"/><path d="M237.82 144.308a5.738 5.738 0 0 1-2.53-6.415.189.189 0 0 0 .019-.081.185.185 0 0 0-.019-.08l-1.15-1.951c-.161-.287-.345-.585-.483-.884-.23-.516-.518-2.548.943-1.698a7.73 7.73 0 0 1 1.322 1.847 51.54 51.54 0 0 1 1.208 1.86c.138.229.506 0 .356-.196a78.988 78.988 0 0 0-2.3-3.443c-.379-.516-.77-1.044-1.472-.723a1.275 1.275 0 0 0-.77 1.401c-.253.482-.794.86-.886 1.434a2.813 2.813 0 0 0 .495 1.63l.184.31a.212.212 0 0 0-.081.092c-.23.631-.667 1.331-.195 1.939.212.24.46.445.736.608l1.311.884a.177.177 0 0 0 .145.029.18.18 0 0 0 .069-.031.165.165 0 0 0 .05-.055 6.676 6.676 0 0 0 2.795 3.902c.253.149.483-.207.253-.379zm-5.129-8.034a1.25 1.25 0 0 1 .08-1.377c.104-.149.207-.275.311-.402a15.621 15.621 0 0 0 1.794 3.352v.137a.187.187 0 0 0-.109-.036.188.188 0 0 0-.11.036c-.943.528-1.702-1.044-1.966-1.71zm.471 3.111a.853.853 0 0 1-.437-.907c.07-.28.167-.553.288-.815.437.574 1.035 1.033 1.748.689a5.719 5.719 0 0 0 0 2.111 17.968 17.968 0 0 1-1.599-1.044v-.034z" fill="#34323D"/><path d="M261.142 151.32s-9.614.459-12.121-1.836c-2.507-2.295-6.107-9.537-6.107-9.537s-6.624 4.246-6.9 6.702c-.276 2.456 6.9 14.266 10.143 15.069" fill="#66C652"/><path d="M275.735 269.623s-8.13-3.661-10.085-3.753c-1.955-.092-5.221.528-2.369 4.109 0 0 8.544 5.578 9.671 5.738 1.127.161 3.864-.677 3.933-.39.069.287.322 2.445.322 2.445s7.142 2.72 7.464-2.055c0-.619-1.035-9.468-1.035-9.468" fill="#34323D"/><path d="M285.062 248.747c-1.415-9.182-4.002-18.053-5.072-27.326-.678-5.842-1.15-11.707-1.886-17.537-.736-5.83-2.898-11.477-4.301-17.215a.635.635 0 0 1 .288-.712c-.069-.206-.127-.401-.196-.608a65.215 65.215 0 0 0-2.173-1.963l-9.994 6.714s.058 6.106.368 14.92c1.15 5.153 2.047 9.756 3.358 14.645a1.29 1.29 0 0 0-.31 1.147 413.384 413.384 0 0 1 7.095 46.642 1.353 1.353 0 0 0 .897 1.148l.276 2.41c8.694 3.351 10.603-2.479 10.603-2.479s.391-4.97.886-11.867c.172-2.651.218-5.302.161-7.919z" fill="#F7941D"/><path d="M211.508 155.188c.518.31 1.07.654 1.714 1.09a22.89 22.89 0 0 1-2.3-3.443c-.644-1.079.954-1.951 1.736-1.147a67.654 67.654 0 0 0 7.142 6.702c.116.091.214.204.287.333h3.266a.952.952 0 0 1 .874.264c.205.07.401.163.587.275.058.04.112.086.161.138.506.057 1.023.092 1.529.161a1.14 1.14 0 0 1 .807.594 1.149 1.149 0 0 1 .033 1.001l.218-.126c1.15-.712 2.07 1.147.92 1.893a15.442 15.442 0 0 1-8.05 2.296.927.927 0 0 1-.908.115l-.483-.184a23.434 23.434 0 0 1-7.084-1.469 6.44 6.44 0 0 0-1.886-.425c.379-2.754.931-5.405 1.437-8.068z" fill="#FCBF81"/><path d="m257.945 282.959-4.83 1.722a2.652 2.652 0 0 1-1.955 1.779 1.07 1.07 0 0 1-.678.378 12.667 12.667 0 0 1-5.75-.929c-2.3-.723-11.339-4.166-8.832 2.295 1.644 1.148 3.45 2.146 5.175 3.179a77.333 77.333 0 0 0 2.875 1.687c.517.35 1.088.614 1.69.781 1.3.195 4.451-.781 4.531-.448.081.333.368 2.812.368 2.812s8.223 3.133 8.579-2.364c.069-.712-1.173-10.892-1.173-10.892z" fill="#34323D"/><path d="M264.742 233.655c1.012-16.205 1.564-32.514 4.991-48.444.149-4.143 2.84-1.492 2.656-3.133-1.46-13.336-20.919 2.537-20.919 2.537-.793.642-.885 4.728-1.046 5.658a347.116 347.116 0 0 0-2.3 15.413c-3.22 26.029-2.036 51.932-.713 78.042 4.128 4.212 6.843 5.475 13.501 2.755 1.334-17.089 2.599-34.19 3.691-51.29l.139-1.538z" fill="#F7941D"/><path d="M254.334 153.088c.184-.85 2.369-1.412 3.013-1.756 1.506-.815.621-2.296 2.104-3.122a50.796 50.796 0 0 1 6.682-3.248h.057c3.692 0 9.879-.206 10.258 4.717.575 7.586-.091 15.127-.678 22.678-.241 3.03-.506 6.037-.77 8.998-.092 1.079-.242 9.836-.886 10.1-7.326 3.03-16.698 1.962-23.874-.873a242.73 242.73 0 0 1 4.094-37.494z" fill="#66C652"/><path d="M260.912 160.743a12.344 12.344 0 0 1-2.837 6.856 12.39 12.39 0 0 1-6.26 4.001c0 .505-.149 3.581-.207 4.086 5.854-1.401 10.166-8.734 10.776-14.92.092-.964-1.334-.953-1.472-.023z" fill="#34323D"/><path d="M264.5 129.629c-.483.126-4.6 9.526-2.967 15.23 1.633 5.704 11.316-.161 13.8-4.51 2.484-4.35-1.633-13.095-10.833-10.72z" fill="#FCBF81"/><path d="M264.627 130.938a4.504 4.504 0 0 0 2.714 4.108c2.725.999 4.979 1.676 4.83 2.938-.15 1.263-4.922-.172-4.934 2.697-.001 1.94.262 3.87.782 5.739.299 1.411 8.464-2.904 11.144-10.272 2.679-7.368-4.048-9.308-4.37-9.365-.322-.057-.932-2.054-4.232-2.766-3.301-.711-4.232.562-4.232.562a4.005 4.005 0 0 0-4.819.517c-3.047 2.41-2.3 6.817 1.15 8.608l1.967-2.766z" fill="#34323D"/><path d="M260.935 147.384s-16.801 9.606-22.85 9.617c-4.37 0-13.018-1.411-17.469-2.203-4.163 3.523-4.439 9.686-1.851 14.392 7.337 1.147 29.06 4.315 35.879.941 8.257-4.086 17.32-9.549 17.32-9.549s8.187-8.022-11.029-13.198z" fill="#66C652"/><path d="M213.222 156.278s-2.519-2.066-3.163-1.641c-.644.425-2.185 3.925-1.978 6.002.207 2.078 1.276 3.834 6.44 3.776" fill="#FCBF81"/><path d="m158.919 202.392 20.895-11.649c3.876-2.157.403-8.114-3.45-5.945l-20.895 11.649c-3.876 2.158-.403 8.114 3.45 5.945zM155.837 212.813l43.884-24.446c1.449-.814.149-3.041-1.311-2.226l-43.884 24.445c-1.449.815-.15 3.042 1.311 2.227z" fill="#FFEED9"/><defs><linearGradient id="a" x1="130.514" y1="257.963" x2="166.052" y2="230.475" gradientUnits="userSpaceOnUse"><stop stop-color="#DD6F31"/><stop offset="1" stop-color="#603813"/></linearGradient><linearGradient id="b" x1="230.575" y1="305.396" x2="277.504" y2="252.773" gradientUnits="userSpaceOnUse"><stop stop-color="#DD6F31"/><stop offset="1" stop-color="#603813"/></linearGradient><linearGradient id="c" x1="368.483" y1="229.638" x2="412.555" y2="180.211" gradientUnits="userSpaceOnUse"><stop stop-color="#DD6F31"/><stop offset="1" stop-color="#603813"/></linearGradient></defs></svg>