<svg width="497" height="643" fill="none" xmlns="http://www.w3.org/2000/svg"><g clip-path="url(#a)"><path d="m448.641 12.104-3.989-3.99-3.989 3.99 3.989 3.989 3.989-3.99zM489.064 52.527l-3.989-3.99-3.989 3.99 3.989 3.989 3.989-3.99z" fill="#F7941D"/><path d="m367.795 12.104-3.989-3.99-3.989 3.99 3.989 3.989 3.989-3.99z" stroke="#F7941D"/><path d="m408.218 52.527-3.989-3.99-3.989 3.99 3.989 3.989 3.989-3.99zM448.641 92.95l-3.989-3.99-3.989 3.99 3.989 3.989 3.989-3.99zM489.064 133.373l-3.989-3.989-3.989 3.989 3.989 3.989 3.989-3.989zM286.95 12.104l-3.989-3.99-3.99 3.99 3.99 3.989 3.989-3.99zM327.373 52.527l-3.99-3.99-3.989 3.99 3.989 3.989 3.99-3.99zM367.795 92.95l-3.989-3.99-3.989 3.99 3.989 3.989 3.989-3.99z" fill="#F7941D"/><path d="m408.218 133.373-3.989-3.989-3.989 3.989 3.989 3.989 3.989-3.989z" stroke="#F7941D"/><path d="m448.641 173.796-3.989-3.99-3.989 3.99 3.989 3.989 3.989-3.989zM489.064 214.218l-3.989-3.989-3.989 3.989 3.989 3.99 3.989-3.99zM246.527 52.527l-3.989-3.99-3.99 3.99 3.99 3.989 3.989-3.99zM286.95 92.95l-3.989-3.99-3.99 3.99 3.99 3.989 3.989-3.99zM327.373 133.373l-3.99-3.99-3.989 3.99 3.989 3.989 3.99-3.989zM367.795 173.796l-3.989-3.99-3.989 3.99 3.989 3.989 3.989-3.989zM408.218 214.218l-3.989-3.989-3.989 3.989 3.989 3.99 3.989-3.99z" fill="#F7941D"/><path d="m448.641 254.641-3.989-3.989-3.989 3.989 3.989 3.99 3.989-3.99z" stroke="#F7941D"/><path d="m489.064 295.064-3.989-3.989-3.989 3.989 3.989 3.989 3.989-3.989zM206.104 92.95l-3.989-3.99-3.989 3.99 3.989 3.989 3.989-3.99zM246.527 133.373l-3.989-3.99-3.99 3.99 3.99 3.989 3.989-3.989zM286.95 173.796l-3.989-3.99-3.99 3.99 3.99 3.989 3.989-3.989zM327.373 214.218l-3.99-3.989-3.989 3.989 3.989 3.99 3.99-3.99zM367.796 254.641l-3.99-3.989-3.989 3.989 3.989 3.989 3.99-3.989z" fill="#F7941D"/><path d="m408.218 295.064-3.989-3.989-3.989 3.989 3.989 3.989 3.989-3.989z" stroke="#F7941D"/><path d="m448.641 335.487-3.989-3.989-3.989 3.989 3.989 3.989 3.989-3.989zM489.064 375.91l-3.989-3.989-3.989 3.989 3.989 3.989 3.989-3.989zM165.681 133.373l-3.989-3.989-3.989 3.989 3.989 3.989 3.989-3.989zM206.104 173.796l-3.989-3.99-3.989 3.99 3.989 3.989 3.989-3.989zM246.527 214.219l-3.989-3.99-3.99 3.989 3.99 3.99 3.989-3.989z" fill="#F7941D"/><path d="m286.95 254.641-3.99-3.989-3.989 3.989 3.989 3.99 3.99-3.99z" stroke="#F7941D"/><path d="m327.373 295.064-3.99-3.989-3.989 3.989 3.989 3.989 3.99-3.989zM367.795 335.487l-3.989-3.989-3.989 3.989 3.989 3.989 3.989-3.989zM408.218 375.91l-3.989-3.989-3.989 3.989 3.989 3.989 3.989-3.989zM448.641 416.333l-3.989-3.989-3.989 3.989 3.989 3.989 3.989-3.989z" fill="#F7941D"/><path d="m489.064 456.756-3.989-3.989-3.989 3.989 3.989 3.989 3.989-3.989z" stroke="#F7941D"/><path d="m125.258 173.796-3.989-3.99-3.989 3.99 3.989 3.989 3.989-3.989zM165.681 214.218l-3.989-3.989-3.989 3.989 3.989 3.99 3.989-3.99zM206.104 254.641l-3.989-3.989-3.989 3.989 3.989 3.99 3.989-3.99zM246.527 295.064l-3.989-3.989-3.99 3.989 3.99 3.989 3.989-3.989zM286.95 335.487l-3.989-3.989-3.99 3.989 3.989 3.989 3.99-3.989z" fill="#F7941D"/><path d="m327.373 375.91-3.99-3.989-3.989 3.989 3.989 3.989 3.99-3.989z" stroke="#F7941D"/><path d="m367.795 416.333-3.989-3.989-3.989 3.989 3.989 3.989 3.989-3.989z" fill="#F7941D"/><path d="m408.218 456.756-3.989-3.989-3.989 3.989 3.989 3.989 3.989-3.989z" stroke="#F7941D"/><path d="m448.641 497.179-3.989-3.989-3.989 3.989 3.989 3.989 3.989-3.989zM489.064 537.602l-3.989-3.989-3.989 3.989 3.989 3.989 3.989-3.989zM84.835 214.219l-3.99-3.99-3.988 3.99 3.989 3.989 3.989-3.989zM125.258 254.641l-3.989-3.989-3.989 3.989 3.989 3.99 3.989-3.99zM165.681 295.064l-3.989-3.989-3.989 3.989 3.989 3.989 3.989-3.989zM206.104 335.487l-3.989-3.989-3.99 3.989 3.99 3.989 3.989-3.989zM246.527 375.91l-3.989-3.989-3.99 3.989 3.99 3.989 3.989-3.989zM286.95 416.333l-3.99-3.989-3.989 3.989 3.989 3.989 3.99-3.989zM327.372 456.756l-3.989-3.989-3.989 3.989 3.989 3.989 3.989-3.989zM367.795 497.179l-3.989-3.989-3.989 3.989 3.989 3.989 3.989-3.989z" fill="#F7941D"/><path d="m408.218 537.602-3.989-3.989-3.989 3.989 3.989 3.989 3.989-3.989z" stroke="#F7941D"/><path d="m448.641 578.025-3.989-3.989-3.989 3.989 3.989 3.989 3.989-3.989z" fill="#F7941D"/><path d="m489.064 618.448-3.989-3.989-3.989 3.989 3.989 3.989 3.989-3.989z" stroke="#F7941D"/><path d="m44.412 254.641-3.99-3.989-3.988 3.989 3.989 3.989 3.989-3.989z" fill="#F7941D"/><path d="m84.835 295.064-3.99-3.989-3.988 3.989 3.989 3.989 3.989-3.989zM125.258 335.487l-3.989-3.989-3.989 3.989 3.989 3.989 3.989-3.989z" stroke="#F7941D"/><path d="m165.681 375.91-3.989-3.989-3.989 3.989 3.989 3.989 3.989-3.989zM206.104 416.333l-3.989-3.989-3.989 3.989 3.989 3.989 3.989-3.989zM246.527 456.756l-3.989-3.989-3.989 3.989 3.989 3.989 3.989-3.989zM286.95 497.179l-3.989-3.989-3.99 3.989 3.99 3.989 3.989-3.989zM327.373 537.602l-3.99-3.989-3.989 3.989 3.989 3.989 3.99-3.989zM367.796 578.025l-3.99-3.989-3.989 3.989 3.989 3.989 3.99-3.989z" fill="#F7941D"/><path d="m408.218 618.448-3.989-3.989-3.989 3.989 3.989 3.989 3.989-3.989z" stroke="#F7941D"/><path d="M3.99 295.064 0 291.075l-3.99 3.989L0 299.053l3.99-3.989zM44.412 335.487l-3.99-3.989-3.988 3.989 3.989 3.989 3.989-3.989zM84.835 375.91l-3.99-3.989-3.988 3.989 3.989 3.989 3.989-3.989zM125.258 416.333l-3.989-3.989-3.989 3.989 3.989 3.989 3.989-3.989zM165.681 456.756l-3.989-3.989-3.989 3.989 3.989 3.989 3.989-3.989zM206.104 497.179l-3.989-3.989-3.989 3.989 3.989 3.989 3.989-3.989zM246.527 537.602l-3.989-3.989-3.99 3.989 3.99 3.989 3.989-3.989zM286.95 578.025l-3.99-3.989-3.989 3.989 3.989 3.989 3.99-3.989zM327.373 618.448l-3.99-3.989-3.989 3.989 3.989 3.989 3.99-3.989z" fill="#F7941D"/></g><defs><clipPath id="a"><path fill="#fff" transform="rotate(45 471.888 490.537)" d="M0 0h686v686H0z"/></clipPath></defs></svg>