<svg width="383" height="113" viewBox="0 0 383 113" fill="none" xmlns="http://www.w3.org/2000/svg">
<path d="M172.12 36H156.32V9.65002H171.51V14.48H162.25V20.35H170.87V25.16H162.25V31.16H172.12V36Z" fill="#010101"/>
<path d="M200.83 36H194.83L184 19.44C183.37 18.44 182.93 17.75 182.68 17.26H182.61C182.71 18.19 182.75 19.61 182.75 21.52V36H177.15V9.65002H183.54L194 25.65C194.47 26.37 194.92 27.09 195.32 27.8H195.39C195.271 26.5972 195.224 25.3884 195.25 24.18V9.65002H200.85L200.83 36Z" fill="#010101"/>
<path d="M213.58 36H207.64V9.65002H213.58V36Z" fill="#010101"/>
<path d="M241.83 24.59C241.83 32.5034 238.143 36.46 230.77 36.46C223.623 36.46 220.047 32.5933 220.04 24.86V9.65002H226.04V24.94C226.04 29.2 227.707 31.33 231.04 31.33C234.373 31.33 236.01 29.2734 235.95 25.16V9.65002H241.88L241.83 24.59Z" fill="#010101"/>
<path d="M247.14 35V29.12C248.17 29.985 249.345 30.662 250.61 31.12C251.825 31.5623 253.107 31.7891 254.4 31.79C255.072 31.8017 255.743 31.7346 256.4 31.59C256.894 31.4807 257.367 31.2916 257.8 31.03C258.144 30.8181 258.432 30.5266 258.64 30.18C258.82 29.8595 258.913 29.4975 258.91 29.13C258.916 28.6345 258.762 28.1503 258.47 27.75C258.14 27.3083 257.733 26.929 257.27 26.63C256.699 26.2417 256.093 25.9069 255.46 25.63C254.76 25.31 254.01 24.98 253.2 24.63C251.432 23.976 249.853 22.8977 248.6 21.49C247.548 20.2322 246.98 18.6396 247 17C246.968 15.7683 247.254 14.5492 247.83 13.46C248.375 12.4817 249.146 11.6484 250.08 11.03C251.084 10.3675 252.198 9.88994 253.37 9.61998C254.681 9.3121 256.023 9.16106 257.37 9.17C258.591 9.16269 259.811 9.24625 261.02 9.42C262.02 9.57225 263.002 9.8269 263.95 10.18V15.68C263.498 15.3631 263.015 15.0918 262.51 14.87C261.99 14.6324 261.452 14.4384 260.9 14.29C260.362 14.1394 259.814 14.0258 259.26 13.95C258.743 13.8806 258.222 13.8439 257.7 13.84C257.085 13.8327 256.471 13.8965 255.87 14.03C255.378 14.1366 254.906 14.3187 254.47 14.57C254.119 14.7831 253.819 15.0697 253.59 15.41C253.384 15.7358 253.276 16.1144 253.28 16.5C253.271 16.9233 253.393 17.339 253.63 17.69C253.899 18.0819 254.238 18.4209 254.63 18.69C255.124 19.0394 255.645 19.3471 256.19 19.61C256.803 19.91 257.493 20.22 258.26 20.54C259.239 20.9382 260.188 21.406 261.1 21.94C261.891 22.4019 262.617 22.9668 263.26 23.62C263.853 24.2379 264.322 24.9645 264.64 25.76C264.976 26.6544 265.139 27.6046 265.12 28.56C265.164 29.8452 264.875 31.12 264.28 32.26C263.737 33.2459 262.957 34.081 262.01 34.69C260.992 35.3358 259.863 35.7868 258.68 36.02C257.365 36.2956 256.024 36.433 254.68 36.43C253.298 36.4322 251.919 36.3084 250.56 36.06C249.376 35.8695 248.224 35.5127 247.14 35V35Z" fill="#010101"/>
<path d="M126 74.1V47.53H135.41C144.85 47.53 149.57 51.8634 149.57 60.53C149.655 62.3623 149.355 64.1921 148.688 65.901C148.022 67.6098 147.004 69.1596 145.7 70.45C143.133 72.9234 139.703 74.1567 135.41 74.15L126 74.1ZM132 52.41V69.25H135C136.124 69.3112 137.249 69.1344 138.3 68.7311C139.351 68.3279 140.305 67.7073 141.1 66.91C142.65 65.1698 143.448 62.8869 143.32 60.56C143.385 59.4624 143.224 58.3631 142.845 57.3308C142.467 56.2985 141.879 55.3553 141.12 54.56C140.291 53.8039 139.319 53.2222 138.26 52.8494C137.202 52.4766 136.08 52.3204 134.96 52.39L132 52.41Z" fill="#010101"/>
<path d="M160.75 74.1H154.75V47.53H160.75V74.1Z" fill="#010101"/>
<path d="M189.39 72.32C186.422 73.9111 183.085 74.6874 179.72 74.57C175.447 74.57 172.077 73.3867 169.61 71.02C167.143 68.6533 165.913 65.3933 165.92 61.24C165.85 59.3432 166.177 57.4528 166.88 55.6895C167.582 53.9263 168.645 52.329 170 51C172.667 48.3733 176.247 47.06 180.74 47.06C183.272 47.0139 185.794 47.4098 188.19 48.23V53.84C185.886 52.5894 183.29 51.975 180.67 52.06C179.546 52.0191 178.425 52.2132 177.38 52.6299C176.335 53.0466 175.388 53.6767 174.6 54.48C173.129 56.2751 172.306 58.5131 172.262 60.8334C172.218 63.1537 172.957 65.421 174.36 67.27C175.093 68.026 175.979 68.6168 176.958 69.0031C177.938 69.3894 178.988 69.5622 180.04 69.51C181.208 69.5621 182.373 69.3538 183.45 68.9V63.71H178.13V59H189.43L189.39 72.32Z" fill="#010101"/>
<path d="M201.34 74.1H195.34V47.53H201.34V74.1Z" fill="#010101"/>
<path d="M226.84 52.41H219.26V74.1H213.26V52.41H205.72V47.53H226.84V52.41Z" fill="#010101"/>
<path d="M251.92 74.1H245.4L243.51 68.19H234.06L232.19 74.1H225.71L235.38 47.53H242.47L251.92 74.1ZM242.14 63.6L239.29 54.67C239.059 53.8907 238.909 53.0899 238.84 52.28H238.7C238.631 53.0653 238.474 53.8403 238.23 54.59L235.34 63.59L242.14 63.6Z" fill="#010101"/>
<path d="M271.86 74.1H256V47.53H262V69.25H271.84L271.86 74.1Z" fill="#010101"/>
<path d="M153 112.32H147.62V96.42C147.62 94.7 147.7 92.81 147.84 90.73H147.7C147.61 91.13 147.51 91.52 147.4 91.92C147.29 92.32 147.18 92.68 147.07 93.04C146.96 93.4 146.85 93.7 146.74 93.98C146.63 94.26 146.55 94.48 146.47 94.66L141.47 104.35H137.29L132.41 94.62L132.21 94.09C132.12 93.85 132.03 93.56 131.93 93.22C131.83 92.88 131.73 92.5 131.63 92.08C131.515 91.6353 131.425 91.1847 131.36 90.73H131.19C131.28 91.89 131.34 92.96 131.38 93.94C131.42 94.92 131.38 95.73 131.38 96.4V112.32H126V85.75H133.34L138 95C138.13 95.3 138.27 95.61 138.4 95.95C138.53 96.29 138.67 96.62 138.8 96.95C138.93 97.28 139.05 97.61 139.15 97.95C139.253 98.2357 139.33 98.5303 139.38 98.83H139.48L139.72 97.91C139.8 97.57 139.9 97.23 140 96.91C140.1 96.59 140.2 96.22 140.31 95.91C140.41 95.6104 140.527 95.3166 140.66 95.03L145.48 85.84H153V112.32Z" fill="#010101"/>
<path d="M183.22 112.32H176.7L174.81 106.4H165.36L163.49 112.32H157L166.67 85.75H173.76L183.22 112.32ZM173.44 101.81L170.59 92.88C170.358 92.1009 170.208 91.3 170.14 90.49H170C169.94 91.2789 169.785 92.0577 169.54 92.81L166.65 101.81H173.44Z" fill="#010101"/>
<path d="M209.62 112.32H202.75L198.62 105.48C198.31 104.96 198.01 104.48 197.73 104.09C197.474 103.731 197.186 103.397 196.87 103.09C196.607 102.819 196.299 102.595 195.96 102.43C195.65 102.273 195.307 102.191 194.96 102.19H193.35V112.37H187.35V85.75H196.83C203.283 85.75 206.507 88.1567 206.5 92.97C206.509 93.8444 206.367 94.7138 206.08 95.54C205.798 96.3096 205.389 97.0263 204.87 97.66C204.337 98.3027 203.702 98.8534 202.99 99.29C202.23 99.7642 201.404 100.125 200.54 100.36V100.44C200.955 100.571 201.345 100.775 201.69 101.04C202.076 101.34 202.435 101.675 202.76 102.04C203.12 102.417 203.454 102.818 203.76 103.24C204.08 103.66 204.36 104.08 204.62 104.49L209.62 112.32ZM193.32 90.23V97.62H195.91C197.049 97.6749 198.164 97.2757 199.01 96.51C199.393 96.153 199.696 95.7189 199.9 95.2363C200.103 94.7537 200.202 94.2336 200.19 93.71C200.19 91.39 198.803 90.23 196.03 90.23H193.32Z" fill="#010101"/>
<path d="M235 112.32H227.44L219.7 100.77C219.426 100.303 219.188 99.8144 218.99 99.31H218.9V112.31H212.9V85.75H218.9V98.31H219C219.15 97.96 219.4 97.47 219.74 96.83L227.08 85.75H234.21L224.95 98.42L235 112.32Z" fill="#010101"/>
<path d="M254.26 112.32H238.32V85.75H253.65V90.62H244.31V96.53H253V101.38H244.31V107.46H254.26V112.32Z" fill="#010101"/>
<path d="M278.31 90.62H270.73V112.32H264.73V90.62H257.19V85.75H278.31V90.62Z" fill="#010101"/>
<path d="M288.66 112.32H282.66V85.75H288.66V112.32Z" fill="#010101"/>
<path d="M319.4 112.32H313.4L302.45 95.62C301.969 94.91 301.525 94.1757 301.12 93.42H301C301.1 94.35 301.15 95.79 301.15 97.72V112.32H295.5V85.75H302L312.54 101.92C313.02 102.65 313.47 103.37 313.88 104.09H313.95C313.821 102.878 313.771 101.659 313.8 100.44V85.75H319.45L319.4 112.32Z" fill="#010101"/>
<path d="M348.09 110.54C345.116 112.123 341.777 112.896 338.41 112.78C334.137 112.78 330.77 111.597 328.31 109.23C325.85 106.863 324.617 103.607 324.61 99.46C324.535 97.5741 324.851 95.6931 325.54 93.9357C326.228 92.1783 327.274 90.5828 328.61 89.25C331.277 86.6234 334.86 85.3067 339.36 85.3C341.889 85.2546 344.407 85.6505 346.8 86.47V92.08C344.495 90.833 341.9 90.2188 339.28 90.3C338.156 90.2603 337.035 90.455 335.991 90.8716C334.946 91.2882 333.999 91.9177 333.21 92.72C331.738 94.5166 330.914 96.7564 330.871 99.0784C330.827 101.4 331.567 103.669 332.97 105.52C333.704 106.274 334.59 106.864 335.569 107.25C336.549 107.637 337.599 107.81 338.65 107.76C339.818 107.808 340.982 107.6 342.06 107.15V102H336.74V97.22H348.05L348.09 110.54Z" fill="#010101"/>
<path d="M370.77 112.81C377.524 112.81 383 107.334 383 100.58C383 93.8255 377.524 88.35 370.77 88.35C364.016 88.35 358.54 93.8255 358.54 100.58C358.54 107.334 364.016 112.81 370.77 112.81Z" fill="#F89521"/>
<path d="M112.87 0.200012V112.32H42.8699C50.4399 110.73 57.22 107.18 63.22 103.72V46.56H14.82V67H37.57V89.2C33.98 90.94 29.11 91.83 22.9799 91.83C14.1299 91.83 6.27996 89.43 0.579956 84.62V27.16C7.22996 20.48 15.2099 17.16 25.6799 17.16C38.3466 17.16 49.0833 19.6967 57.89 24.77V0.769989" fill="#F89521"/>
<path d="M149.35 34.32C146.382 35.9103 143.045 36.6834 139.68 36.56C135.407 36.56 132.04 35.38 129.58 33.02C127.12 30.66 125.887 27.4 125.88 23.24C125.803 21.354 126.119 19.4726 126.808 17.715C127.497 15.9575 128.543 14.3621 129.88 13.03C132.547 10.4033 136.127 9.09001 140.62 9.09001C143.152 9.04509 145.672 9.43752 148.07 10.25V15.87C145.766 14.6194 143.17 14.005 140.55 14.09C139.426 14.0503 138.305 14.245 137.26 14.6616C136.215 15.0782 135.269 15.7077 134.48 16.51C133.009 18.3051 132.186 20.5431 132.142 22.8634C132.098 25.1837 132.838 27.451 134.24 29.3C134.974 30.0544 135.86 30.6442 136.839 31.0304C137.818 31.4166 138.869 31.5903 139.92 31.54C141.088 31.5921 142.253 31.3838 143.33 30.93V25.74H138.01V21H149.31L149.35 34.32Z" fill="#010101"/>
</svg>
