<svg width="350" height="251" fill="none" xmlns="http://www.w3.org/2000/svg"><path opacity=".24" d="M343.622 118.677c-5.525 17.654-15.698 33.607-25.532 49.459-4.527 7.257-9.115 14.826-10.092 23.21-.714 6.225.592 12.527.121 18.762-1.321 17.813-17.333 32.325-35.249 37.673-17.915 5.349-37.32 3.2-55.701-.481-18.382-3.682-36.561-8.847-55.322-9.449-13.5-.429-26.919 1.494-40.257 3.474-16.174 2.409-32.692 4.818-48.8 2.115-16.108-2.703-32.024-11.559-38.282-25.96-7.794-17.91 1.012-38.748-3.798-57.592-1.408-5.58-3.94-10.711-6.933-15.698-2.243-3.763-4.75-7.43-7.236-11.082-4.344-6.423-8.608-12.923-11.236-20.063C-1.587 94.321 4.302 71.95 19.68 58.522 47.53 34.171 90.4 42.4 122.476 26.486c35.386-17.577 64.816-36.787 106.745-20.044 11.601 4.64 22.103 11.51 33.75 16.088 9.768 3.854 20.209 5.955 30.261 9.097l.906.299a117.17 117.17 0 0 1 14.442 5.666c13.166 6.263 24.813 15.172 31.73 27.358 9.226 16.179 8.821 36.069 3.312 53.727z" fill="#F7941D"/><path opacity=".24" d="m301.41 34.643-.577 39.61-10.189 5.325-2.582-29.502-103.418 65.527L130.72 72.88 23.778 144.19c-2.244-3.763-4.75-7.43-7.237-11.082l114.893-76.663 54.142 42.935L279.59 41.2c.101.03-26.985-9.015-26.985-9.015.8-.544 5.722-5.781 6.583-6.374 0 0 34.768 6.052 34.94 6.11 4.937 1.57 2.613.51 7.282 2.722z" fill="#F7941D"/><path opacity=".24" d="M321.847 70.36h-40.956c-2.768 0-5.013 2.136-5.013 4.77v7.454c0 2.635 2.245 4.77 5.013 4.77h40.956c2.769 0 5.014-2.135 5.014-4.77V75.13c0-2.634-2.245-4.77-5.014-4.77zM290.452 203.02h-58.715c-3.968 0-7.185 3.061-7.185 6.837v10.687c0 3.776 3.217 6.837 7.185 6.837h58.715c3.968 0 7.185-3.061 7.185-6.837v-10.687c0-3.776-3.217-6.837-7.185-6.837zM93.607 146.474H40.21c-3.632 0-6.577 2.802-6.577 6.258v9.916c0 3.457 2.945 6.259 6.578 6.259h53.397c3.633 0 6.578-2.802 6.578-6.259v-9.916c0-3.456-2.945-6.258-6.578-6.258zM101.289 200.197H60.095c-2.967 0-5.373 2.289-5.373 5.112v8.943c0 2.823 2.406 5.112 5.373 5.112h41.194c2.967 0 5.373-2.289 5.373-5.112v-8.943c0-2.823-2.406-5.112-5.373-5.112z" fill="#F7941D"/><path d="M209.284 116.991c0-11.805 3.182-20.995 9.546-27.57 6.363-6.575 15.226-9.863 26.59-9.863 11.646 0 20.619 3.23 26.919 9.69 6.299 6.46 9.45 15.509 9.454 27.15 0 8.451-1.378 15.382-4.132 20.791-2.587 5.233-6.738 9.625-11.936 12.623-5.198 2.997-11.682 4.496-19.45 4.496-7.889 0-14.42-1.299-19.591-3.898-5.172-2.599-9.357-6.702-12.554-12.311-3.23-5.621-4.846-12.657-4.846-21.108zm21.623.101c0 7.301 1.313 12.545 3.939 15.731 2.627 3.187 6.198 4.782 10.715 4.785 4.646 0 8.241-1.563 10.786-4.688 2.546-3.126 3.818-8.731 3.818-16.816 0-6.806-1.328-11.785-3.985-14.936s-6.26-4.71-10.811-4.679a13.263 13.263 0 0 0-5.845 1.18c-1.822.83-3.41 2.06-4.632 3.59-2.653 3.19-3.982 8.468-3.985 15.833z" fill="#F7941D" opacity=".37"/><g opacity=".37" fill="#F7941D"><path d="m68.754 129.817 20.69-1.234c.45 3.213 1.363 5.649 2.74 7.31 2.238 2.714 5.445 4.069 9.621 4.066 3.106 0 5.498-.694 7.176-2.081 1.678-1.388 2.522-2.994 2.532-4.818 0-1.735-.8-3.288-2.401-4.66-1.6-1.371-5.313-2.666-11.14-3.883-9.537-2.04-16.337-4.749-20.402-8.128a16.47 16.47 0 0 1-4.621-5.797 15.675 15.675 0 0 1-1.521-7.131c.01-3.475 1.105-6.869 3.144-9.752 2.097-3.06 5.248-5.47 9.454-7.227 4.207-1.757 9.976-2.632 17.309-2.626 8.993 0 15.849 1.592 20.569 4.775 4.719 3.183 7.528 8.245 8.426 15.187l-20.514 1.151c-.547-3.016-1.691-5.208-3.433-6.576-1.742-1.369-4.151-2.055-7.226-2.058-2.525 0-4.43.51-5.712 1.532a4.744 4.744 0 0 0-1.416 1.65 4.502 4.502 0 0 0-.503 2.075c.016.565.168 1.118.442 1.619.275.501.666.936 1.143 1.272 1.013.88 3.445 1.702 7.297 2.467 9.506 1.946 16.315 3.917 20.427 5.912 4.112 1.994 7.103 4.469 8.973 7.425a18.09 18.09 0 0 1 2.795 9.896c.021 4.226-1.284 8.361-3.747 11.877-2.553 3.672-6.194 6.541-10.462 8.244-4.479 1.873-10.129 2.809-16.948 2.809-11.964 0-20.252-2.192-24.863-6.577-4.612-4.384-7.221-9.958-7.829-16.719zM143.501 85.007h58.279v14.3h-36.485v10.639h33.842v13.66h-33.842v13.202h37.538v15.163h-59.332V85.007z"/></g><path d="m69.331 119.164 20.691-1.233c.446 3.212 1.357 5.648 2.734 7.309 2.245 2.711 5.453 4.066 9.622 4.066 3.102 0 5.494-.693 7.175-2.081s2.525-2.994 2.532-4.818c0-1.735-.8-3.288-2.4-4.659-1.6-1.372-5.314-2.666-11.14-3.884-9.54-2.04-16.341-4.749-20.403-8.128a16.498 16.498 0 0 1-4.62-5.798 15.704 15.704 0 0 1-1.527-7.13c.01-3.475 1.105-6.869 3.144-9.752C77.236 80 80.39 77.59 84.6 75.83c4.21-1.76 9.977-2.635 17.303-2.626 8.993 0 15.851 1.592 20.574 4.775 4.723 3.183 7.53 8.246 8.421 15.187l-20.498 1.142c-.54-3.016-1.685-5.209-3.434-6.577-1.748-1.368-4.155-2.054-7.22-2.057-2.532 0-4.436.51-5.713 1.532a4.745 4.745 0 0 0-1.417 1.646 4.5 4.5 0 0 0-.507 2.074c.017.564.168 1.118.443 1.619.274.5.665.936 1.142 1.272 1.013.886 3.445 1.71 7.297 2.471 9.503 1.947 16.312 3.917 20.427 5.912 4.116 1.995 7.108 4.47 8.979 7.425a18.164 18.164 0 0 1 2.805 9.911c.02 4.225-1.283 8.36-3.742 11.877-2.557 3.671-6.199 6.54-10.467 8.244-4.48 1.876-10.128 2.812-16.944 2.809-11.97 0-20.26-2.192-24.868-6.577-4.608-4.384-7.224-9.959-7.849-16.724zM144.073 74.355h58.279V88.65h-36.485v10.644h33.847v13.659h-33.847v13.202h37.543v15.144h-59.337V74.354zM266.444 172.776H79.712c-4.035 0-7.307 3.113-7.307 6.953v8.678c0 3.84 3.272 6.952 7.307 6.952h186.732c4.036 0 7.308-3.112 7.308-6.952v-8.678c0-3.84-3.272-6.953-7.308-6.953z" fill="#fff"/><path opacity=".24" d="M269.473 172.347a8.566 8.566 0 0 0-3.039-.544H79.717c-2.208.001-4.325.835-5.888 2.319-1.564 1.483-2.445 3.496-2.452 5.597v8.673c.005 2.102.886 4.116 2.45 5.6 1.563 1.485 3.681 2.32 5.89 2.321h186.738c2.203-.014 4.311-.853 5.868-2.336 1.557-1.482 2.438-3.489 2.451-5.585v-8.673a7.646 7.646 0 0 0-1.453-4.465 8.259 8.259 0 0 0-3.848-2.907zm3.266 16.064c-.004 1.585-.668 3.103-1.845 4.224a6.466 6.466 0 0 1-4.439 1.756H79.717a6.472 6.472 0 0 1-4.45-1.751c-1.182-1.12-1.849-2.641-1.854-4.229v-8.673c.007-1.586.674-3.106 1.855-4.226 1.182-1.12 2.781-1.748 4.45-1.748h186.737a6.465 6.465 0 0 1 4.437 1.754c1.177 1.119 1.841 2.637 1.847 4.22v8.673z" fill="#F7941D"/><g opacity=".56" fill="#F7941D"><path d="M79.626 186.238c.41.243.88.378 1.362.391.75 0 1.099-.357 1.099-.805 0-.448-.294-.723-1.053-.993-1.013-.346-1.52-.881-1.52-1.527 0-.872.74-1.585 1.96-1.585.488-.005.97.109 1.398.332l-.258.718a2.288 2.288 0 0 0-1.16-.313c-.613 0-.952.333-.952.737 0 .405.34.646 1.079.916.987.351 1.488.824 1.488 1.628 0 .964-.774 1.619-2.121 1.619a3.382 3.382 0 0 1-1.595-.371l.273-.747zM85.004 184.721c-.022.247.013.496.101.73.089.233.23.446.412.623.182.177.403.315.646.404.244.089.505.128.765.112a3.864 3.864 0 0 0 1.575-.279l.177.703a4.753 4.753 0 0 1-1.889.337c-1.752 0-2.795-1.093-2.795-2.727 0-1.633 1.013-2.891 2.664-2.891 1.853 0 2.344 1.552 2.344 2.544a4.176 4.176 0 0 1-.03.458l-3.97-.014zm3.038-.704c0-.626-.273-1.595-1.433-1.595-1.043 0-1.52.911-1.585 1.595h3.018zM93.425 187.241l-.081-.68h-.036a2.099 2.099 0 0 1-.766.602 2.229 2.229 0 0 1-.97.203 1.707 1.707 0 0 1-.659-.085 1.63 1.63 0 0 1-.567-.329 1.544 1.544 0 0 1-.38-.518 1.48 1.48 0 0 1-.131-.62c0-1.305 1.22-2.018 3.413-2.009v-.106a1.06 1.06 0 0 0-.05-.497 1.109 1.109 0 0 0-.273-.427 1.188 1.188 0 0 0-.964-.328 2.914 2.914 0 0 0-1.478.404l-.238-.65a3.683 3.683 0 0 1 1.868-.482c1.737 0 2.157 1.127 2.157 2.207v2.023c-.008.433.022.865.092 1.292h-.937zm-.152-2.756c-1.124-.024-2.405.168-2.405 1.219a.832.832 0 0 0 .26.679.916.916 0 0 0 .327.202.95.95 0 0 0 .385.053c.3.009.594-.074.841-.236.247-.162.433-.395.531-.665a.977.977 0 0 0 .06-.313v-.939zM95.931 183.526c0-.636 0-1.186-.045-1.687h.901l.036 1.06h.045c.098-.329.303-.621.586-.833.283-.212.63-.334.99-.347.098-.002.197.009.293.034v.925a1.562 1.562 0 0 0-.355-.034c-.352.014-.687.15-.942.383a1.35 1.35 0 0 0-.44.879c-.03.151-.045.305-.046.458v2.891h-1.012l-.01-3.729zM103.694 187.043a3.95 3.95 0 0 1-1.63.313c-1.712 0-2.826-1.108-2.826-2.761-.019-.383.047-.766.193-1.124a2.74 2.74 0 0 1 .656-.952c.287-.27.63-.48 1.007-.616.377-.137.78-.196 1.182-.175.494-.005.982.091 1.433.28l-.238.761a2.46 2.46 0 0 0-1.195-.26c-1.301 0-2.025.915-2.025 2.043-.025.259.008.52.096.766s.229.472.415.663c.186.191.412.343.663.445.251.102.522.153.796.149.437.001.87-.091 1.266-.269l.207.737zM104.899 179.319h1.013v3.373c.177-.29.432-.53.739-.694.323-.176.687-.27 1.059-.274.764 0 1.98.443 1.98 2.308v3.213h-1.013v-3.103c0-.867-.339-1.604-1.312-1.604-.306.005-.604.1-.852.273a1.416 1.416 0 0 0-.53.691c-.06.153-.084.318-.071.481v3.257h-1.013v-7.921z"/></g><path d="M274.774 179.72v8.672a7.507 7.507 0 0 1-.871 3.531 7.932 7.932 0 0 1-2.45 2.776h-24.307v-22.351h22.332a8.264 8.264 0 0 1 3.845 2.907 7.644 7.644 0 0 1 1.451 4.465z" fill="#F7941D"/><path d="M257.871 187.959a7.418 7.418 0 0 1-3.977-1.146 6.896 6.896 0 0 1-2.637-3.055 6.503 6.503 0 0 1-.408-3.935 6.708 6.708 0 0 1 1.958-3.487 7.272 7.272 0 0 1 3.665-1.863 7.498 7.498 0 0 1 4.135.388 7.093 7.093 0 0 1 3.211 2.51 6.573 6.573 0 0 1 1.204 3.784c-.004 1.803-.759 3.532-2.099 4.807-1.34 1.275-3.156 1.993-5.052 1.997zm0-11.718a5.348 5.348 0 0 0-2.87.826 4.97 4.97 0 0 0-1.905 2.204 4.69 4.69 0 0 0-.296 2.84c.199.954.69 1.83 1.412 2.518a5.262 5.262 0 0 0 2.645 1.346 5.409 5.409 0 0 0 2.985-.279 5.124 5.124 0 0 0 2.319-1.81c.567-.808.87-1.759.87-2.731a4.794 4.794 0 0 0-1.511-3.473 5.297 5.297 0 0 0-3.649-1.441z" fill="#fff"/><path d="m262.081 184.657-1.684 1.267 4.746 5.711 1.684-1.268-4.746-5.71zM272.779 82.097c-6.164-6.07-14.926-9.11-26.286-9.12-11.096 0-19.757 3.091-25.982 9.275-6.198 6.21-9.323 14.845-9.323 25.965 0 7.956 1.572 14.58 4.715 19.87 3.143 5.291 7.241 9.158 12.295 11.603 5.04 2.447 11.417 3.669 19.131 3.666 7.585 0 13.913-1.416 18.984-4.249 5.023-2.784 9.073-6.913 11.646-11.873 2.667-5.107 4.006-11.634 4.016-19.581.007-10.94-3.058-19.459-9.196-25.556zm-40.459 26.216c0-6.948 1.284-11.915 3.853-14.902a12.314 12.314 0 0 1 4.279-3.27 12.921 12.921 0 0 1 5.342-1.192c.21-.032.421-.045.633-.039 4.44 0 7.961 1.475 10.563 4.424a14.835 14.835 0 0 1 3.099 6.48 32.42 32.42 0 0 1 .795 7.569c0 1.706-.06 3.277-.182 4.751-.432 5.107-1.614 8.801-3.545 11.082-2.488 2.93-6.002 4.397-10.542 4.404-4.389 0-7.876-1.5-10.462-4.5-2.532-2.988-3.813-7.84-3.833-14.614v-.193z" fill="#fff"/><path d="M260.717 112.134c-.432 5.108-1.613 8.801-3.544 11.082-2.488 2.93-6.003 4.398-10.543 4.404-4.389 0-7.876-1.5-10.462-4.5-2.532-2.988-3.813-7.84-3.833-14.614.3-1.258.666-2.501 1.099-3.724a13.876 13.876 0 0 0 4.648-4.096c1.778-2.5 2.694-5.565 4.917-7.709.755-.718 1.631-1.34 2.183-2.197a4.264 4.264 0 0 0 .633-1.821c.182-1.282-.041-2.68-.061-4a12.408 12.408 0 0 1 1.995-6.846c4.223.058 8.38 1.879 12.523 2.597 1.813 2.89-1.347 6.62-.471 9.896.309 1.166 1.124 2.154 1.468 3.32.572 1.98-.304 3.917-1.159 5.898a19.337 19.337 0 0 0-.983 2.736c-.81 3.19.253 6.457 1.59 9.574z" fill="#F7941D"/><path d="M260.717 112.134c-.432 5.108-1.613 8.801-3.544 11.082-2.488 2.93-6.003 4.398-10.543 4.404-4.389 0-7.876-1.5-10.462-4.5-2.532-2.988-3.813-7.84-3.833-14.614.3-1.258.666-2.501 1.099-3.724a13.876 13.876 0 0 0 4.648-4.096c1.778-2.5 2.694-5.565 4.917-7.709.755-.718 1.631-1.34 2.183-2.197a4.264 4.264 0 0 0 .633-1.821c.182-1.282-.041-2.68-.061-4a12.408 12.408 0 0 1 1.995-6.846c4.223.058 8.38 1.879 12.523 2.597 1.813 2.89-1.347 6.62-.471 9.896.309 1.166 1.124 2.154 1.468 3.32.572 1.98-.304 3.917-1.159 5.898a19.337 19.337 0 0 0-.983 2.736c-.81 3.19.253 6.457 1.59 9.574z" fill="url(#a)"/><path d="M258.13 113.387c-.338 5.104-1.224 8.798-2.659 11.082-1.863 2.93-4.491 4.409-7.899 4.409-3.302 0-5.915-1.502-7.839-4.505-1.894-2.988-2.856-7.84-2.871-14.609.226-1.285.501-2.526.825-3.725a12.252 12.252 0 0 0 3.484-4.095c1.327-2.505 2.026-5.57 3.681-7.71a12.587 12.587 0 0 0 1.636-2.191 5.292 5.292 0 0 0 .471-1.827 35.02 35.02 0 0 0-.046-3.994 15.62 15.62 0 0 1 1.52-6.851c3.159.057 6.279 1.883 9.378 2.601 1.362 2.891-1.013 6.616-.35 9.897.228 1.161.841 2.154 1.099 3.315.431 1.98-.228 3.922-.871 5.902-.297.898-.542 1.81-.734 2.732-.613 3.185.182 6.461 1.175 9.569z" fill="url(#b)"/><path d="m247.876 94.51.658-.7c.099 3.627-1.157 7.17-3.545 9.999-1.099 1.291-2.466 2.486-2.891 4.1a19.696 19.696 0 0 0 5.659-5.356 18.657 18.657 0 0 0 3.03-7.027c.355-1.787.507-3.744 1.702-5.155l.248 2.462a49.397 49.397 0 0 0 2.719-5.898c.152-.39.273-.891-.056-1.166a1.172 1.172 0 0 0-.643-.197c-2.025-.188-4.274-.83-5.317 1.127-1.19 2.245-1.463 5.353-1.564 7.81z" fill="url(#c)"/><path d="M246.934 79.375s-.289 3.96.506 5.122c.795 1.161 6.173 3.416 8.254 2.409a14.03 14.03 0 0 0 3.519-2.525l1.049-3.662-13.328-1.344z" fill="#F7941D"/><path d="M246.934 79.375s-.289 3.96.506 5.122c.795 1.161 6.173 3.416 8.254 2.409a14.03 14.03 0 0 0 3.519-2.525l1.049-3.662-13.328-1.344z" fill="url(#d)"/><path d="M245.81 72.977s2.293-29.873 14.543-33.145c12.249-3.272 1.519 39.702 1.519 39.702S245.81 91.19 245.81 72.976z" fill="#F7941D"/><path d="M245.81 72.977s2.293-29.873 14.543-33.145c12.249-3.272 1.519 39.702 1.519 39.702S245.81 91.19 245.81 72.976z" fill="url(#e)"/><path d="M244.361 67.706c-2.81 2.539-5.727 5.232-6.897 8.75-.876 2.616-.688 5.43-.506 8.19.056.738.218 1.624.942 1.89.82.298 1.62-.454 2.122-1.138 1.701-2.322 3.134-4.91 5.489-6.635.415-.26.782-.586 1.083-.963a3.32 3.32 0 0 0 .411-1.797c.131-3.421.374-6.905.395-10.297-1.206.299-2.107 1.152-3.039 2z" fill="#F7941D"/><path d="M244.361 67.706c-2.81 2.539-5.727 5.232-6.897 8.75-.876 2.616-.688 5.43-.506 8.19.056.738.218 1.624.942 1.89.82.298 1.62-.454 2.122-1.138 1.701-2.322 3.134-4.91 5.489-6.635.415-.26.782-.586 1.083-.963a3.32 3.32 0 0 0 .411-1.797c.131-3.421.374-6.905.395-10.297-1.206.299-2.107 1.152-3.039 2z" fill="url(#f)"/><path d="M266.389 70.809c2.101 3.103 4.263 6.379 4.527 10.055.197 2.742-.689 5.435-1.56 8.051-.233.704-.613 1.528-1.382 1.624-.876.106-1.464-.805-1.783-1.585-1.073-2.636-1.823-5.473-3.681-7.68a4.227 4.227 0 0 1-.815-1.166 3.357 3.357 0 0 1 .045-1.84c.724-3.374 1.352-6.79 2.183-10.12 1.109.598 1.772 1.63 2.466 2.66z" fill="#F7941D"/><path d="M266.374 70.895c2.096 3.098 4.258 6.374 4.522 10.056.197 2.736-.684 5.43-1.56 8.05-.233.704-.613 1.528-1.383 1.62-.871.106-1.463-.805-1.782-1.585-1.073-2.636-1.823-5.47-3.676-7.676a4.138 4.138 0 0 1-.816-1.166 3.302 3.302 0 0 1 .041-1.84c.724-3.373 1.357-6.794 2.182-10.119 1.114.598 1.773 1.629 2.472 2.66z" fill="url(#g)"/><path d="M252.473 96.682a15.363 15.363 0 0 0-1.225 3.749c-.182 1.282-.03 2.587-.152 3.854-.238 2.612-1.56 5.007-2.294 7.536-1.043 3.604-.866 7.411-.678 11.14l4.491-13.751a20.671 20.671 0 0 0 1.013-3.855c.108-1.489.1-2.983-.025-4.471a42.637 42.637 0 0 1 .557-7.791c-.775 1.026-1.185 2.404-1.687 3.59z" fill="url(#h)"/><path d="M257.882 62.777c2.002 0 3.625-1.545 3.625-3.45 0-1.905-1.623-3.45-3.625-3.45-2.003 0-3.626 1.544-3.626 3.45 0 1.905 1.623 3.45 3.626 3.45z" fill="#F7941D"/><path d="M257.856 62.126c1.631 0 2.952-1.258 2.952-2.81 0-1.55-1.321-2.808-2.952-2.808-1.63 0-2.952 1.258-2.952 2.809 0 1.551 1.322 2.809 2.952 2.809z" fill="url(#i)"/><path d="M290.644 206.677h-56.431c-3.814 0-6.907 2.943-6.907 6.572v10.268c0 3.63 3.093 6.572 6.907 6.572h56.431c3.815 0 6.907-2.942 6.907-6.572v-10.268c0-3.629-3.092-6.572-6.907-6.572z" fill="#fff"/><path opacity=".24" d="M290.401 213.095h-54.765c-.584 0-1.058.451-1.058 1.007 0 .556.474 1.007 1.058 1.007h54.765c.585 0 1.059-.451 1.059-1.007 0-.556-.474-1.007-1.059-1.007zM273.752 218.665h-38.313c-.476 0-.861.367-.861.819v.265c0 .453.385.819.861.819h38.313c.475 0 .86-.366.86-.819v-.265c0-.452-.385-.819-.86-.819z" fill="#F7941D"/><path d="M90.67 141.4H34.24c-3.815 0-6.908 2.942-6.908 6.572v10.268c0 3.629 3.093 6.572 6.907 6.572H90.67c3.815 0 6.907-2.943 6.907-6.572v-10.268c0-3.63-3.092-6.572-6.907-6.572z" fill="#fff"/><path opacity=".24" d="M90.432 147.818H35.667c-.584 0-1.058.451-1.058 1.007 0 .556.474 1.007 1.058 1.007h54.765c.585 0 1.058-.451 1.058-1.007 0-.556-.473-1.007-1.058-1.007zM73.782 153.388H35.47c-.476 0-.861.366-.861.819v.265c0 .452.385.819.86.819h38.313c.476 0 .861-.367.861-.819v-.265c0-.453-.385-.819-.86-.819z" fill="#F7941D"/><path d="M99.476 202.625H58.52c-2.769 0-5.013 2.136-5.013 4.77v7.454c0 2.634 2.245 4.77 5.013 4.77h40.956c2.769 0 5.013-2.136 5.013-4.77v-7.454c0-2.634-2.244-4.77-5.013-4.77z" fill="#fff"/><path opacity=".24" d="M99.304 207.284H59.558c-.425 0-.77.327-.77.73 0 .403.345.73.77.73h39.746c.425 0 .77-.327.77-.73 0-.403-.345-.73-.77-.73zM87.222 211.327H59.416c-.346 0-.627.267-.627.597v.188c0 .33.28.597.627.597h27.806c.347 0 .628-.267.628-.597v-.188c0-.33-.281-.597-.628-.597z" fill="#F7941D"/><path d="M323.523 65.08h-40.955c-2.769 0-5.014 2.135-5.014 4.77v7.453c0 2.635 2.245 4.77 5.014 4.77h40.955c2.769 0 5.014-2.135 5.014-4.77V69.85c0-2.635-2.245-4.77-5.014-4.77z" fill="#fff"/><path opacity=".24" d="M323.351 69.739h-39.745c-.425 0-.77.327-.77.73 0 .403.345.73.77.73h39.745c.425 0 .77-.327.77-.73 0-.403-.345-.73-.77-.73zM311.269 73.781h-27.805c-.347 0-.628.268-.628.598v.188c0 .33.281.597.628.597h27.805c.347 0 .628-.267.628-.597v-.188c0-.33-.281-.598-.628-.598zM112.596 176.053h-.764v14.204h.764v-14.204z" fill="#F7941D"/><defs><linearGradient id="a" x1="248.564" y1="106.656" x2="231.719" y2="152.386" gradientUnits="userSpaceOnUse"><stop stop-color="#010101" stop-opacity="0"/><stop offset=".95" stop-color="#010101"/></linearGradient><linearGradient id="b" x1="242.255" y1="119.608" x2="284.704" y2="34.016" gradientUnits="userSpaceOnUse"><stop stop-color="#fff" stop-opacity="0"/><stop offset=".95" stop-color="#fff"/></linearGradient><linearGradient id="c" x1="247.415" y1="105.047" x2="255.06" y2="58.481" gradientUnits="userSpaceOnUse"><stop stop-color="#fff" stop-opacity="0"/><stop offset=".95" stop-color="#fff"/></linearGradient><linearGradient id="d" x1="251.086" y1="85.682" x2="256.911" y2="73.296" gradientUnits="userSpaceOnUse"><stop stop-color="#010101" stop-opacity="0"/><stop offset=".95" stop-color="#010101"/></linearGradient><linearGradient id="e" x1="245.81" y1="61.432" x2="266.227" y2="61.432" gradientUnits="userSpaceOnUse"><stop stop-color="#fff" stop-opacity="0"/><stop offset=".95" stop-color="#fff"/></linearGradient><linearGradient id="f" x1="236.811" y1="76.142" x2="247.415" y2="76.142" gradientUnits="userSpaceOnUse"><stop stop-color="#010101" stop-opacity="0"/><stop offset=".95" stop-color="#010101"/></linearGradient><linearGradient id="g" x1="271.631" y1="79.953" x2="261.402" y2="77.293" gradientUnits="userSpaceOnUse"><stop stop-color="#010101" stop-opacity="0"/><stop offset=".95" stop-color="#010101"/></linearGradient><linearGradient id="h" x1="265.589" y1="104.767" x2="144.536" y2="134.976" gradientUnits="userSpaceOnUse"><stop stop-color="#fff" stop-opacity="0"/><stop offset=".95" stop-color="#fff"/></linearGradient><linearGradient id="i" x1="254.904" y1="59.317" x2="260.808" y2="59.317" gradientUnits="userSpaceOnUse"><stop stop-color="#010101" stop-opacity="0"/><stop offset=".95" stop-color="#010101"/></linearGradient></defs></svg>