<svg width="350" height="258" fill="none" xmlns="http://www.w3.org/2000/svg"><g clip-path="url(#a)"><path opacity=".18" d="M164.137.051a91.351 91.351 0 0 0-17.013 1.872c-20.996 4.568-38.348 18.62-54.074 32.963-13.15 11.995-26.093 24.967-32.938 41.24-6.54 15.61-6.958 33.287-14.534 48.489-4.793 9.638-12.177 17.753-18.048 26.813-9.907 15.312-14.986 35.592-6.193 51.585 5.01 9.093 13.786 15.567 22.545 21.335 22.431 14.767 47.185 27.11 73.931 30.964 10.211 1.472 20.561 1.701 30.876 2.186 8.898.434 17.9 1.081 26.65-.544 21.892-4.066 38.47-21.386 58.762-30.386 14.43-6.406 30.442-8.447 45.767-12.292 15.326-3.845 30.999-10.089 40.636-22.407 8.602-10.999 11.011-24.976 12.507-38.391 1.444-12.922-6.645-25.018-11.594-36.902-10.698-25.682-21.874-51.67-41.401-72.307-19.97-20.989-46.151-35.343-74.878-41.053A188.552 188.552 0 0 0 172.556.043c-2.801-.051-5.61-.068-8.419.008z" fill="#F7941D"/><path d="M148.576 108.188a2.089 2.089 0 0 0-.584-1.147 2.171 2.171 0 0 0-1.155-.605 3.064 3.064 0 0 0-1.313.069 3.017 3.017 0 0 0-1.157.612 2.54 2.54 0 0 0-.87 1.335 3.606 3.606 0 0 0 .096 1.642c.147.759.442 1.484.869 2.135.87 1.208 2.923 1.633 3.549 0 .072-.527.093-1.06.061-1.591.096-.833.591-1.59.504-2.45z" fill="#FCA89E"/><path d="M118.83 37.175 142.653 156.6a10.447 10.447 0 0 1-1.652 7.974c-1.61 2.338-4.104 3.956-6.932 4.497l-52.856 10.08a11.072 11.072 0 0 1-8.154-1.596 10.627 10.627 0 0 1-4.615-6.766L44.621 51.339a10.444 10.444 0 0 1 1.65-7.972c1.608-2.338 4.099-3.957 6.926-4.5l52.847-10.089a11.115 11.115 0 0 1 4.243 0c1.4.272 2.732.812 3.919 1.587a10.74 10.74 0 0 1 3 2.934 10.502 10.502 0 0 1 1.624 3.833v.043z" fill="#F7941D"/><path d="m105.319 30.75-50.631 9.662c-5.696 1.087-9.412 6.483-8.3 12.054l23.21 116.355c1.112 5.571 6.63 9.205 12.325 8.119l50.632-9.662c5.695-1.087 9.411-6.483 8.3-12.054L117.644 38.869c-1.111-5.57-6.629-9.205-12.325-8.118z" fill="#473F47"/><path d="m115.873 40.526 22.475 112.671a9.646 9.646 0 0 1-1.603 7.346 10.059 10.059 0 0 1-6.443 4.088l-47.437 9.051c-1.738.34-3.538.229-5.219-.324a9.903 9.903 0 0 1-4.34-2.77 9.588 9.588 0 0 1-2.313-4.537L48.527 53.371a9.653 9.653 0 0 1 1.611-7.348 10.067 10.067 0 0 1 6.451-4.085l8.01-1.548.305 1.43c.201.905.672 1.733 1.353 2.378a4.84 4.84 0 0 0 2.474 1.245 5.03 5.03 0 0 0 1.888 0l22.022-4.202a4.888 4.888 0 0 0 3.086-1.988 4.688 4.688 0 0 0 .776-3.533l-.287-1.353 7.828-1.48a10.395 10.395 0 0 1 7.402 1.336 9.72 9.72 0 0 1 2.882 2.702 9.483 9.483 0 0 1 1.545 3.601z" fill="#fff"/><path opacity=".18" d="M93.615 114.806c9.036 0 16.361-7.164 16.361-16 0-8.838-7.325-16.002-16.36-16.002-9.036 0-16.361 7.164-16.361 16.001 0 8.837 7.325 16.001 16.36 16.001z" fill="#F7941D"/><path d="m94.99 110.596-.566-2.858a8.642 8.642 0 0 1-4.67-.375l.295-2.024a8 8 0 0 0 4.35.374c2.07-.391 3.209-1.829 2.878-3.403-.33-1.573-1.635-2.297-3.949-2.73-3.183-.553-5.27-1.498-5.758-3.948-.486-2.45.87-4.457 3.427-5.41l-.565-2.85 1.792-.34.548 2.74a8.11 8.11 0 0 1 3.957.255l-.322 2.033a7.355 7.355 0 0 0-3.835-.255c-2.218.425-2.792 1.905-2.557 3.028.295 1.472 1.522 1.999 4.227 2.552 3.227.595 5.018 1.77 5.54 4.253.444 2.229-.713 4.628-3.583 5.691l.582 2.927-1.791.34zM306.91 51.508l-19.779 122.964c-.46 2.849-2.058 5.403-4.442 7.101a11.32 11.32 0 0 1-8.274 1.951l-54.413-8.38a11.257 11.257 0 0 1-4.074-1.455 11.04 11.04 0 0 1-3.195-2.87 10.764 10.764 0 0 1-1.828-3.847 10.645 10.645 0 0 1-.183-4.239l19.787-122.981c.456-2.849 2.05-5.403 4.431-7.102a11.308 11.308 0 0 1 8.268-1.958l54.412 8.37c2.91.44 5.523 1.992 7.264 4.314a10.692 10.692 0 0 1 2.026 8.072v.06z" fill="#F7941D"/><path d="M231.789 41.45 212.52 161.248c-.922 5.737 3.084 11.118 8.949 12.021l52.128 8.02c5.865.902 11.368-3.016 12.291-8.753l19.268-119.798c.923-5.736-3.084-11.118-8.949-12.02l-52.128-8.02c-5.865-.903-11.367 3.016-12.29 8.752z" fill="#473F47"/><path d="m302.874 53.711-18.665 115.981a10.02 10.02 0 0 1-4.167 6.513 10.45 10.45 0 0 1-7.654 1.73l-48.837-7.52a10.55 10.55 0 0 1-4.888-2.084 9.901 9.901 0 0 1-3.191-4.149 9.681 9.681 0 0 1-.602-5.158l18.666-115.98a10.02 10.02 0 0 1 4.175-6.515 10.452 10.452 0 0 1 7.662-1.72l8.272 1.268-.235 1.455a4.744 4.744 0 0 0 .457 2.75 4.87 4.87 0 0 0 1.935 2.047 5.51 5.51 0 0 0 1.818.638l22.692 3.488a5.08 5.08 0 0 0 3.679-.856A4.87 4.87 0 0 0 286 42.466l.218-1.379 8.01 1.234a10.486 10.486 0 0 1 6.637 3.81 9.75 9.75 0 0 1 1.81 3.586 9.63 9.63 0 0 1 .199 3.994z" fill="#fff"/><path d="M200.589 95.088h-4.349c-.346 0-.678-.134-.923-.374a1.264 1.264 0 0 1-.382-.902c0-.338.138-.663.382-.902.245-.24.577-.374.923-.374h4.349c.346 0 .678.135.922.374a1.26 1.26 0 0 1 0 1.804c-.244.24-.576.374-.922.374zm-8.698 0h-4.349c-.346 0-.678-.134-.922-.374a1.261 1.261 0 0 1-.383-.902c0-.338.138-.663.383-.902.244-.24.576-.374.922-.374h4.349c.346 0 .678.135.923.374.244.24.382.564.382.902 0 .339-.138.663-.382.902-.245.24-.577.374-.923.374zm-8.698 0h-4.349c-.346 0-.677-.134-.922-.374a1.26 1.26 0 0 1 0-1.804 1.32 1.32 0 0 1 .922-.374h4.349c.346 0 .678.135.923.374.244.24.382.564.382.902 0 .339-.138.663-.382.902-.245.24-.577.374-.923.374zm-8.697 0h-4.349c-.346 0-.678-.134-.923-.374a1.26 1.26 0 0 1 0-1.804c.245-.24.577-.374.923-.374h4.349c.346 0 .677.135.922.374a1.26 1.26 0 0 1 0 1.804c-.245.24-.576.374-.922.374zm-8.698 0h-4.349c-.346 0-.678-.134-.923-.374a1.264 1.264 0 0 1-.382-.902c0-.338.138-.663.382-.902.245-.24.577-.374.923-.374h4.349c.346 0 .678.135.922.374a1.26 1.26 0 0 1 0 1.804c-.244.24-.576.374-.922.374zm-8.698 0h-4.349c-.346 0-.678-.134-.922-.374a1.26 1.26 0 0 1 0-1.804c.244-.24.576-.374.922-.374h4.349c.346 0 .678.135.923.374.244.24.382.564.382.902 0 .339-.138.663-.382.902-.245.24-.577.374-.923.374zM148.942 100.116a1.244 1.244 0 0 1-.87-.315l-5.88-5.028a1.265 1.265 0 0 1-.36-1.382 1.275 1.275 0 0 1 .36-.523l5.88-5.266a1.326 1.326 0 0 1 1.727.181 1.259 1.259 0 0 1 .012 1.7l-4.801 4.303 4.775 4.092a1.255 1.255 0 0 1 .139 1.786c-.119.142-.27.255-.44.333a1.316 1.316 0 0 1-.542.119zM204.711 100.116a1.288 1.288 0 0 1-.982-.434 1.265 1.265 0 0 1 .121-1.804l4.784-4.091-4.801-4.305a1.259 1.259 0 0 1 .012-1.699 1.325 1.325 0 0 1 1.727-.181l5.88 5.266a1.278 1.278 0 0 1 .426.953 1.322 1.322 0 0 1-.443.953l-5.88 5.027c-.234.2-.533.311-.844.315zM197.918 185.991c0 6.655-2.703 13.038-7.515 17.744-4.811 4.707-11.338 7.35-18.143 7.35-6.805 0-13.331-2.643-18.143-7.35-4.812-4.706-7.515-11.089-7.515-17.744-.012-.642.011-1.284.07-1.923.517-6.461 3.57-12.475 8.52-16.783 4.951-4.308 11.413-6.575 18.034-6.327 6.622.249 12.888 2.994 17.486 7.66 4.598 4.667 7.171 10.892 7.18 17.373h.026z" fill="#F7941D"/><path opacity=".14" d="M161.492 197.381c-.869 3.624.192 7.494-.574 11.101-5.923-2.868-10.491-7.854-12.759-13.925a15.374 15.374 0 0 1 .096-3.743 9.73 9.73 0 0 0 0-4.007 9.173 9.173 0 0 0-1.592-2.739 24.658 24.658 0 0 1 3.247-10.428 25.262 25.262 0 0 1 7.468-8.091c.035.168.035.342 0 .51l-1.095 4.772a13.98 13.98 0 0 1 0 4.254 4.853 4.853 0 0 1-.808 1.958 4.968 4.968 0 0 1-1.576 1.445c-.47.195-.929.416-1.374.663-.424.34-.778.756-1.044 1.225a10.274 10.274 0 0 0-1.565 3.199 3.483 3.483 0 0 0-.021 1.756c.142.578.431 1.112.838 1.553l7.15-1.361a2.321 2.321 0 0 1 2.166.314c.617.655.234 1.702.365 2.595.174 1.123 1.2 1.939 1.679 2.986.878 1.897-.131 3.989-.601 5.963z" fill="#020202"/><path opacity=".4" d="M151.995 173.095a4.142 4.142 0 0 0 1.522 1.701 18.463 18.463 0 0 0 10.376 3.556 6.647 6.647 0 0 0-3.314 1.548c-.87.851-1.052 2.552-.052 3.233.354.229.754.38 1.174.442 1.911.363 3.888.207 5.715-.451a9.902 9.902 0 0 1 3.366-.987 7.342 7.342 0 0 1 2.713.757 6.903 6.903 0 0 0 3.914.707c1.322-.264 2.523-1.506 2.244-2.791-.069-.306-.208-.638-.052-.901.124-.161.293-.282.487-.349l12.177-5.274c.774-.341 1.653-.851 1.74-1.642.086-.791-.766-1.514-1.557-1.914-4.184-2.135-9.063-2.408-13.778-2.637l-8.367-.4a74.676 74.676 0 0 0-12.177.085c-1.4.162-3.879.179-4.949 1.199a4.784 4.784 0 0 0-1.084 1.924 4.707 4.707 0 0 0-.098 2.194z" fill="#020202"/><path opacity=".14" d="M197.918 185.991a24.584 24.584 0 0 1-2.565 10.95 25.155 25.155 0 0 1-7.202 8.751 3.144 3.144 0 0 1-.87-.85 2.498 2.498 0 0 1-.02-2.838c.189-.281.432-.522.716-.71-.435.222-2.131-.323-2.609-.399l-2.61-.4c-1.269-.196-3.479-.111-4.218-1.361a2.91 2.91 0 0 0-.296-.494 1.735 1.735 0 0 0-.548-.365c-.791-.375-1.739-.809-1.913-1.651-.131-.621.182-1.327-.139-1.871-.105-.179-.261-.307-.366-.477a1.573 1.573 0 0 1 .183-1.573c1.113-1.906 3.418-2.825 5.627-3.19 2.21-.366 4.506-.315 6.654-.928a30.522 30.522 0 0 1 4.053-1.216c.774-.102 1.74-.179 2.018-.851.165-.4 0-.85.165-1.276.07-.17.183-.323.253-.493.043-.13.06-.266.05-.402a1.034 1.034 0 0 0-.729-.908l-.191-.043c.183-.468.33-1.072-.052-1.403a1.035 1.035 0 0 0-.94-.145 8.07 8.07 0 0 0-2.357 1.523 6.576 6.576 0 0 1-8.202-.944 2.218 2.218 0 0 1-.713-1.132c-.03-.373.058-.747.252-1.07.195-.322.486-.579.835-.733a5.322 5.322 0 0 1 2.218-.426c-.284-1.82-.574-3.641-.87-5.461-4.27 1.114-6.001-2.858-6.61-6.159-.609-3.3 1.792-4.474 4.88-4.696 4.75 1.859 8.824 5.066 11.696 9.207a24.688 24.688 0 0 1 4.42 14.034z" fill="#020202"/><path d="M164.658 136.949h16.448a4.377 4.377 0 0 1 1.645.297 4.287 4.287 0 0 1 1.405.89c.404.383.726.841.949 1.347.223.506.342 1.05.35 1.601v.119s-3.132 12.513-3.132 16.715c0 2.306.74 9.179.74 9.179h-20.344s.939-7.188.922-9.595c0-4.101-3.358-16.308-3.358-16.308a4.123 4.123 0 0 1 .304-1.611c.209-.513.519-.98.912-1.375.394-.395.863-.71 1.381-.928a4.384 4.384 0 0 1 1.639-.339l.139.008z" fill="#F7941D"/><path d="M163.867 163.125c.818 0 1.626-.137 2.435-.205 1.053-.093 2.105-.076 3.166-.068l16.804.205a5.107 5.107 0 0 1 1.862.246c.296.101.56.278.762.513.202.235.335.52.386.823.078.791-.6 1.437-1.244 1.922a23.212 23.212 0 0 1-10.133 4.339c-5.671.944-11.49-.23-17.039-1.702a6.784 6.784 0 0 1-2.496-1.046 16.5 16.5 0 0 1-1.827-2.118 7.063 7.063 0 0 1-1.348-1.633c-1.522-3.514 7.367-1.268 8.672-1.276z" fill="#473F47"/><path d="M175.417 139.298a1.827 1.827 0 0 1-.69 1.205c-.381.298-.867.44-1.353.394-2.018-.094-2.158-1.599-2.158-1.599v-7.835h4.201v7.835z" fill="#FCA89E"/><path d="M171.216 135.333s2.61 4.016 4.201 2.085v-3.131l-4.201 1.046z" fill="url(#b)"/><path d="M169.442 133.343c1.053 3.19 6.289 3.283 8.046.748a6.874 6.874 0 0 0 .826-5.104 17.373 17.373 0 0 0-1.601-4.976c-.539-.987-1.087-1.863-2.304-2.008a7.4 7.4 0 0 0-4.019.851 5.784 5.784 0 0 0-2.609 2.79 5.51 5.51 0 0 0-.183 3.752c.212.616.477 1.214.792 1.786.406.693.758 1.415 1.052 2.161z" fill="#FCA89E"/><path d="M171.016 177.348a7.1 7.1 0 0 1-1.922 1.046c-1.47.604-4.349 1.701-3.957 2.977.591 1.702 2.609 1.549 4.009 1.149a26.741 26.741 0 0 0 6.037-2.91l-4.167-2.262z" fill="#473F47"/><path d="M174.583 173.018c5.001-3.573 7.61-6.21 13.229-9.553 1.33-.791 2.252-1.03 4.566-.136 1.974.757 1.74 4.074.687 5.461-3.235 4.151-15.656 9.885-18.195 10.752-1.088.375-4.923-2.781-3.366-4.296.971-.813 2-1.557 3.079-2.228z" fill="#473F47"/><path d="M172.269 179.9a16.876 16.876 0 0 0 2.609 2.654c1.74 1.276 2.862 1.701 4.236 1.08 2-.91.165-2.824-1.383-4.347a21.586 21.586 0 0 0-3.94-3.173l-1.522 3.786z" fill="#473F47"/><path d="m172.53 175.204 2.131 1.701c.441.359.817.787 1.113 1.268.696 1.267-1.739 3.853-3.262 2.331-1.522-1.523-2.957-3.148-2.957-3.148l2.975-2.152z" fill="#FCA89E"/><path d="M166.163 177.926c-5.81-2.858-9.376-3.896-13.107-9.042a5.951 5.951 0 0 1-.949-2.181 5.893 5.893 0 0 1-.017-2.37c.453-1.319 2.418-2.11 4.74-1.566 1.949.451 15.004 10.455 17.039 12.344.87.85-1.791 4.874-3.992 4.176a21.9 21.9 0 0 1-3.714-1.361zM178.122 123.679a4.382 4.382 0 0 1-.974 1.412 5.658 5.658 0 0 1-3.122 1.489c-1.74.143-3.492.086-5.219-.17-.04.271-.157.526-.336.736-.18.21-.416.368-.681.455.261 1.177.61 2.334 1.043 3.462.418 1.114 1.027 2.135 1.488 3.224-1.427-.961-2.514-2.603-3.549-3.93a7.34 7.34 0 0 1-1.313-2.118 2.55 2.55 0 0 1 .234-2.382c.236-.235.428-.508.566-.808a1.985 1.985 0 0 0 0-.783 4.1 4.1 0 0 1 .361-1.801 4.189 4.189 0 0 1 1.117-1.474 8.494 8.494 0 0 1 3.34-1.701 7.504 7.504 0 0 1 3.279-.349c.9.221 1.726.664 2.401 1.287a5.288 5.288 0 0 1 1.452 2.269c.09.394.059.805-.087 1.182z" fill="#473F47"/><path d="M168.311 131.241a1.418 1.418 0 0 0-.922.579.98.98 0 0 0-.043.765c.094.247.229.477.4.681.089.121.198.228.322.315.214.118.458.177.704.17h.566a.544.544 0 0 0 .278-.077.574.574 0 0 0 .191-.263c.131-.39.131-.81 0-1.2a2.128 2.128 0 0 0-.53-.978c-.244-.221-.644-.077-.966.008z" fill="#FCA89E"/><path d="M193.03 127.209h-3.54c-.595 0-1.078.473-1.078 1.055v8.626c0 .583.483 1.055 1.078 1.055h3.54c.596 0 1.079-.472 1.079-1.055v-8.626c0-.582-.483-1.055-1.079-1.055z" fill="#473F47"/><path d="m166.459 137.63-12.76-11.969-5.279-13.577-4.253.8 5.036 15.814 14.264 19.098 2.992-10.166z" fill="#F7941D"/><path opacity=".18" d="M260.081 116.117c9.036 0 16.36-7.164 16.36-16.002 0-8.837-7.324-16-16.36-16s-16.36 7.163-16.36 16c0 8.838 7.324 16.002 16.36 16.002z" fill="#F7941D"/><path d="m257.333 111.676.443-2.884a8.59 8.59 0 0 1-4.27-1.88l.974-1.812a7.915 7.915 0 0 0 4.001 1.787c2.078.306 3.644-.672 3.888-2.297.243-1.625-.757-2.697-2.792-3.862-2.81-1.566-4.454-3.14-4.071-5.615s2.331-3.913 5.08-3.964l.443-2.875 1.809.272-.426 2.756c1.327.203 2.58.73 3.644 1.531l-1 1.813a7.211 7.211 0 0 0-3.522-1.49c-2.244-.331-3.288.851-3.479 2.008-.227 1.48.748 2.382 3.122 3.769 2.827 1.616 4.114 3.309 3.749 5.852-.348 2.246-2.253 4.135-5.323 4.194l-.453 2.952-1.817-.255zM127.275 128.422 74.83 138.718l3.005 14.638 52.444-10.296-3.004-14.638zM231.845 125.629l-.457 3.073 23.101 3.288.457-3.073-23.101-3.288zM257.552 129.299l-.458 3.072 19.513 2.777.457-3.072-19.512-2.777zM230.907 131.959l-.458 3.073 17.464 2.485.457-3.072-17.463-2.486zM250.44 134.74l-.457 3.073 12.213 1.738.458-3.072-12.214-1.739zM265.987 136.958l-.457 3.072 10.147 1.445.457-3.073-10.147-1.444zM229.971 138.309l-.457 3.073 24.599 3.501.457-3.073-24.599-3.501zM257.914 141.203l-.445 3.074 18.094 2.503.445-3.074-18.094-2.503zM229.023 144.635l-.457 3.073 45.221 6.436.458-3.073-45.222-6.436z" fill="#F7941D"/><path d="M192.317 132.1c.072-.431.277-.83.588-1.143a2.2 2.2 0 0 1 1.152-.609 3.046 3.046 0 0 1 1.309.068c.426.118.819.327 1.152.613.424.346.728.813.87 1.335.096.548.06 1.11-.104 1.642a6.053 6.053 0 0 1-.87 2.135c-.87 1.208-2.923 1.633-3.558 0a8.138 8.138 0 0 1-.06-1.591c-.035-.833-.566-1.59-.479-2.45z" fill="#FCA89E"/><path d="M181.384 137.001c.122-.706.774-.536 2.088.127a44.384 44.384 0 0 1 8.828 6.278c.182-2.832.235-5.682.156-8.506 1.992-.128 3.14.323 5.019.995a43.444 43.444 0 0 1-1.192 12.122c-.365 1.378-.869 2.952-2.278 3.403-1.74.57-3.297-.919-4.819-1.855-1.383-.851-3.644-.902-4.749-2.059-.87-.85-.965-2.552-1.287-3.64-.539-1.838-1.261-3.701-1.644-5.572a4.056 4.056 0 0 1-.122-1.293z" fill="#F7941D"/></g><defs><linearGradient id="b" x1="174.235" y1="128.758" x2="171.954" y2="148.505" gradientUnits="userSpaceOnUse"><stop offset=".01"/><stop offset=".08" stop-opacity=".69"/><stop offset=".21" stop-opacity=".32"/><stop offset="1" stop-opacity="0"/></linearGradient><clipPath id="a"><path fill="#fff" d="M0 0h350v258H0z"/></clipPath></defs></svg>