<svg width="383" height="113" viewBox="0 0 383 113" fill="none" xmlns="http://www.w3.org/2000/svg">
<path d="M171.54 35.8H155.74V9.45001H170.93V14.28H161.67V20.15H170.29V24.96H161.67V30.96H171.54V35.8Z" fill="white"/>
<path d="M200.25 35.8H194.25L183.42 19.24C182.79 18.24 182.35 17.55 182.1 17.06H182.03C182.13 17.99 182.17 19.41 182.17 21.32V35.8H176.57V9.45001H182.96L193.42 25.45C193.89 26.17 194.34 26.89 194.74 27.6H194.81C194.691 26.3972 194.644 25.1884 194.67 23.98V9.45001H200.27L200.25 35.8Z" fill="white"/>
<path d="M213 35.8H207.06V9.45001H213V35.8Z" fill="white"/>
<path d="M241.25 24.39C241.25 32.3033 237.563 36.26 230.19 36.26C223.043 36.26 219.467 32.3933 219.46 24.66V9.45001H225.46V24.74C225.46 29 227.127 31.13 230.46 31.13C233.793 31.13 235.43 29.0734 235.37 24.96V9.45001H241.3L241.25 24.39Z" fill="white"/>
<path d="M246.56 34.8V28.92C247.59 29.785 248.765 30.462 250.03 30.92C251.245 31.3623 252.527 31.589 253.82 31.59C254.492 31.6017 255.163 31.5346 255.82 31.39C256.314 31.2807 256.787 31.0916 257.22 30.83C257.564 30.6181 257.852 30.3265 258.06 29.98C258.24 29.6595 258.333 29.2975 258.33 28.93C258.336 28.4345 258.182 27.9502 257.89 27.55C257.56 27.1083 257.153 26.729 256.69 26.43C256.119 26.0417 255.513 25.7069 254.88 25.43C254.18 25.11 253.43 24.78 252.62 24.43C250.853 23.776 249.273 22.6977 248.02 21.29C246.968 20.0322 246.4 18.4396 246.42 16.8C246.388 15.5683 246.674 14.3492 247.25 13.26C247.795 12.2817 248.566 11.4483 249.5 10.83C250.504 10.1675 251.618 9.68993 252.79 9.41997C254.101 9.11209 255.444 8.96105 256.79 8.96998C258.011 8.96268 259.231 9.04624 260.44 9.21998C261.44 9.37224 262.422 9.62689 263.37 9.97996V15.48C262.918 15.1631 262.436 14.8918 261.93 14.67C261.41 14.4324 260.872 14.2384 260.32 14.09C259.782 13.9394 259.234 13.8258 258.68 13.75C258.163 13.6806 257.642 13.6439 257.12 13.64C256.505 13.6327 255.891 13.6965 255.29 13.83C254.798 13.9366 254.326 14.1187 253.89 14.37C253.539 14.5831 253.239 14.8697 253.01 15.21C252.804 15.5358 252.696 15.9143 252.7 16.3C252.691 16.7233 252.813 17.139 253.05 17.49C253.319 17.8819 253.658 18.2209 254.05 18.49C254.544 18.8394 255.065 19.1471 255.61 19.41C256.223 19.71 256.913 20.02 257.68 20.34C258.659 20.7382 259.608 21.206 260.52 21.74C261.311 22.2019 262.038 22.7668 262.68 23.42C263.273 24.0379 263.742 24.7645 264.06 25.56C264.396 26.4544 264.559 27.4046 264.54 28.36C264.584 29.6452 264.295 30.92 263.7 32.06C263.157 33.0459 262.377 33.881 261.43 34.49C260.412 35.1358 259.283 35.5868 258.1 35.82C256.785 36.0956 255.444 36.233 254.1 36.23C252.718 36.2322 251.339 36.1084 249.98 35.86C248.796 35.6695 247.644 35.3127 246.56 34.8V34.8Z" fill="white"/>
<path d="M125.42 73.9V47.33H134.83C144.27 47.33 148.99 51.6634 148.99 60.33C149.075 62.1623 148.775 63.9921 148.108 65.701C147.442 67.4098 146.424 68.9596 145.12 70.25C142.553 72.7234 139.123 73.9567 134.83 73.95L125.42 73.9ZM131.42 52.21V69.05H134.42C135.544 69.1112 136.669 68.9344 137.72 68.5311C138.771 68.1279 139.725 67.5073 140.52 66.71C142.07 64.9697 142.868 62.6868 142.74 60.36C142.805 59.2624 142.644 58.1631 142.265 57.1308C141.887 56.0985 141.299 55.1552 140.54 54.36C139.711 53.6039 138.739 53.0222 137.68 52.6494C136.622 52.2766 135.5 52.1204 134.38 52.19L131.42 52.21Z" fill="white"/>
<path d="M160.17 73.9H154.17V47.33H160.17V73.9Z" fill="white"/>
<path d="M188.81 72.12C185.842 73.7111 182.506 74.4874 179.14 74.37C174.867 74.37 171.497 73.1867 169.03 70.82C166.563 68.4533 165.333 65.1933 165.34 61.04C165.27 59.1432 165.597 57.2528 166.3 55.4895C167.002 53.7263 168.065 52.129 169.42 50.8C172.087 48.1733 175.667 46.86 180.16 46.86C182.692 46.8138 185.214 47.2098 187.61 48.03V53.64C185.306 52.3894 182.71 51.775 180.09 51.86C178.966 51.8191 177.845 52.0132 176.8 52.4299C175.755 52.8465 174.808 53.4767 174.02 54.28C172.549 56.0751 171.726 58.3131 171.682 60.6334C171.639 62.9537 172.378 65.221 173.78 67.07C174.513 67.826 175.399 68.4168 176.378 68.8031C177.358 69.1894 178.408 69.3622 179.46 69.31C180.628 69.3621 181.793 69.1538 182.87 68.7V63.51H177.55V58.8H188.85L188.81 72.12Z" fill="white"/>
<path d="M200.76 73.9H194.76V47.33H200.76V73.9Z" fill="white"/>
<path d="M226.26 52.21H218.68V73.9H212.68V52.21H205.14V47.33H226.26V52.21Z" fill="white"/>
<path d="M251.34 73.9H244.82L242.93 67.99H233.48L231.61 73.9H225.13L234.8 47.33H241.89L251.34 73.9ZM241.56 63.4L238.71 54.47C238.479 53.6907 238.329 52.8899 238.26 52.08H238.12C238.051 52.8653 237.894 53.6403 237.65 54.39L234.76 63.39L241.56 63.4Z" fill="white"/>
<path d="M271.28 73.9H255.42V47.33H261.42V69.05H271.26L271.28 73.9Z" fill="white"/>
<path d="M152.42 112.12H147.04V96.22C147.04 94.5 147.12 92.61 147.26 90.53H147.12C147.03 90.93 146.93 91.32 146.82 91.72C146.71 92.12 146.6 92.48 146.49 92.84C146.38 93.2 146.27 93.5 146.16 93.78C146.05 94.06 145.97 94.28 145.89 94.46L140.89 104.15H136.71L131.83 94.42L131.63 93.89C131.54 93.65 131.45 93.36 131.35 93.02C131.25 92.68 131.15 92.3 131.05 91.88C130.935 91.4353 130.845 90.9847 130.78 90.53H130.61C130.7 91.69 130.76 92.76 130.8 93.74C130.84 94.72 130.8 95.53 130.8 96.2V112.12H125.42V85.55H132.76L137.42 94.8C137.55 95.1 137.69 95.41 137.82 95.75C137.95 96.09 138.09 96.42 138.22 96.75C138.35 97.08 138.47 97.41 138.57 97.75C138.673 98.0357 138.75 98.3303 138.8 98.63H138.9L139.14 97.71C139.22 97.37 139.32 97.03 139.42 96.71C139.52 96.39 139.62 96.02 139.73 95.71C139.83 95.4104 139.947 95.1166 140.08 94.83L144.9 85.64H152.42V112.12Z" fill="white"/>
<path d="M182.64 112.12H176.12L174.23 106.2H164.78L162.91 112.12H156.42L166.09 85.55H173.18L182.64 112.12ZM172.86 101.61L170.01 92.68C169.778 91.9009 169.628 91.1 169.56 90.29H169.42C169.36 91.0789 169.205 91.8577 168.96 92.61L166.07 101.61H172.86Z" fill="white"/>
<path d="M209.04 112.12H202.17L198.04 105.28C197.73 104.76 197.43 104.28 197.15 103.89C196.894 103.531 196.606 103.197 196.29 102.89C196.027 102.619 195.719 102.395 195.38 102.23C195.07 102.073 194.727 101.991 194.38 101.99H192.77V112.17H186.77V85.55H196.25C202.703 85.55 205.927 87.9567 205.92 92.77C205.929 93.6444 205.787 94.5138 205.5 95.34C205.219 96.1096 204.809 96.8262 204.29 97.46C203.757 98.1027 203.122 98.6533 202.41 99.09C201.65 99.5642 200.824 99.9246 199.96 100.16V100.24C200.375 100.371 200.765 100.575 201.11 100.84C201.497 101.14 201.855 101.475 202.18 101.84C202.54 102.217 202.874 102.618 203.18 103.04C203.5 103.46 203.78 103.88 204.04 104.29L209.04 112.12ZM192.74 90.03V97.42H195.33C196.47 97.4748 197.584 97.0757 198.43 96.31C198.813 95.953 199.116 95.5189 199.32 95.0363C199.523 94.5537 199.622 94.0335 199.61 93.51C199.61 91.19 198.223 90.03 195.45 90.03H192.74Z" fill="white"/>
<path d="M234.42 112.12H226.86L219.12 100.57C218.846 100.102 218.608 99.6144 218.41 99.11H218.32V112.11H212.32V85.55H218.32V98.11H218.42C218.57 97.76 218.82 97.27 219.16 96.63L226.5 85.55H233.63L224.37 98.22L234.42 112.12Z" fill="white"/>
<path d="M253.68 112.12H237.74V85.55H253.07V90.42H243.73V96.33H252.42V101.18H243.73V107.26H253.68V112.12Z" fill="white"/>
<path d="M277.73 90.42H270.15V112.12H264.15V90.42H256.61V85.55H277.73V90.42Z" fill="white"/>
<path d="M288.08 112.12H282.08V85.55H288.08V112.12Z" fill="white"/>
<path d="M318.82 112.12H312.82L301.87 95.42C301.389 94.7099 300.945 93.9757 300.54 93.22H300.42C300.52 94.15 300.57 95.59 300.57 97.52V112.12H294.92V85.55H301.42L311.96 101.72C312.44 102.45 312.89 103.17 313.3 103.89H313.37C313.241 102.678 313.191 101.459 313.22 100.24V85.55H318.87L318.82 112.12Z" fill="white"/>
<path d="M347.51 110.34C344.536 111.923 341.197 112.696 337.83 112.58C333.557 112.58 330.19 111.397 327.73 109.03C325.27 106.663 324.037 103.407 324.03 99.26C323.955 97.3741 324.271 95.493 324.96 93.7357C325.648 91.9783 326.694 90.3828 328.03 89.05C330.697 86.4233 334.28 85.1067 338.78 85.1C341.309 85.0546 343.827 85.4505 346.22 86.27V91.88C343.915 90.633 341.32 90.0188 338.7 90.1C337.576 90.0603 336.456 90.255 335.411 90.6716C334.366 91.0882 333.419 91.7177 332.63 92.52C331.158 94.3166 330.334 96.5564 330.291 98.8784C330.247 101.2 330.987 103.469 332.39 105.32C333.124 106.074 334.01 106.664 334.989 107.05C335.969 107.437 337.019 107.61 338.07 107.56C339.238 107.608 340.402 107.4 341.48 106.95V101.8H336.16V97.02H347.47L347.51 110.34Z" fill="white"/>
<path d="M370.19 112.61C376.945 112.61 382.42 107.134 382.42 100.38C382.42 93.6255 376.945 88.15 370.19 88.15C363.436 88.15 357.96 93.6255 357.96 100.38C357.96 107.134 363.436 112.61 370.19 112.61Z" fill="#F89521"/>
<path d="M112.29 0V112.12H42.29C49.86 110.53 56.64 106.98 62.64 103.52V46.36H14.24V66.8H36.99V89C33.4 90.74 28.53 91.63 22.4 91.63C13.55 91.63 5.7 89.23 0 84.42V26.96C6.65 20.28 14.63 16.96 25.1 16.96C37.7667 16.96 48.5033 19.4966 57.31 24.57V0.569977" fill="#F89521"/>
<path d="M148.77 34.12C145.802 35.7103 142.465 36.4834 139.1 36.36C134.827 36.36 131.46 35.18 129 32.82C126.54 30.46 125.307 27.2 125.3 23.04C125.223 21.1539 125.539 19.2725 126.228 17.515C126.917 15.7575 127.963 14.1621 129.3 12.83C131.967 10.2033 135.547 8.89 140.04 8.89C142.572 8.84507 145.092 9.23751 147.49 10.05V15.67C145.186 14.4193 142.59 13.805 139.97 13.89C138.846 13.8503 137.726 14.045 136.681 14.4616C135.636 14.8782 134.689 15.5077 133.9 16.31C132.429 18.1051 131.606 20.3431 131.562 22.6634C131.519 24.9837 132.258 27.251 133.66 29.1C134.394 29.8544 135.28 30.4442 136.259 30.8304C137.239 31.2166 138.289 31.3903 139.34 31.34C140.508 31.3921 141.673 31.1838 142.75 30.73V25.54H137.43V20.8H148.73L148.77 34.12Z" fill="white"/>
</svg>
