<svg width="534" height="402" fill="none" xmlns="http://www.w3.org/2000/svg"><path d="m396.882 85.245 4.192-.974 46.405 26.696-.761 91.286-1.736.974" fill="#DD654A"/><path d="m396.882 85.245-.534 90.073 48.634 27.909v-90.834l-48.1-27.148z" fill="#F8997C"/><path d="M398.591 90.112v83.939l44.175 24.429v-83.42l-44.175-24.948z" fill="#FDF2D6"/><path d="M417.762 107.633v21.428l-14.178-6.787v-18.108" fill="#F8997C"/><path d="m402.516 98.98 15.232 8.68s.788 14.281-3.284 18.334l-13.857-6.867s4.779-10.587 1.909-20.148z" fill="#A1C3FC"/><path d="M437.84 118.994v21.428l-14.164-6.787v-18.108" fill="#F8997C"/><path d="m422.608 110.327 15.272 8.667s.788 14.281-3.284 18.335l-13.857-6.841s4.739-10.587 1.869-20.161z" fill="#A1C3FC"/><path d="M417.762 136.329v21.428l-14.178-6.787v-18.108" fill="#F8997C"/><path d="m402.516 127.661 15.232 8.641s.788 14.281-3.284 18.335l-13.857-6.841s4.779-10.561 1.909-20.135z" fill="#A1C3FC"/><path d="M437.84 147.689v21.442l-14.164-6.801v-18.108" fill="#F8997C"/><path d="m422.608 139.049 15.272 8.614s.788 14.281-3.284 18.334l-13.857-6.84s4.739-10.561 1.869-20.108z" fill="#A1C3FC"/><path d="M423.502 169.918v12.307l-8.143-3.893v-10.414" fill="#F8997C"/><path d="m414.744 164.997 8.758 4.961s.454 8.2-1.882 10.534l-8.01-3.934s2.79-6.12 1.134-11.561z" fill="#A1C3FC"/><path d="M435.664 176.772v12.32l-8.144-3.907v-10.4" fill="#F8997C"/><path d="m426.906 171.811 8.758 4.961s.454 8.2-1.882 10.534l-8.01-3.934s2.763-6.08 1.134-11.561z" fill="#A1C3FC"/><path d="M411.3 163.357v12.308l-8.143-3.894v-10.414" fill="#F8997C"/><path d="m402.543 158.33 8.757 4.961s.454 8.2-1.882 10.534l-8.01-3.934s2.79-6.014 1.135-11.561z" fill="#A1C3FC"/><path d="m277.506 377.693 180.052-100.927a8.58 8.58 0 0 0 .32-14.802L283.34 153.957a8.606 8.606 0 0 0-8.851-.134L84.039 264.231a8.59 8.59 0 0 0-4.294 7.434 8.578 8.578 0 0 0 4.293 7.434l169.826 98.434a23.88 23.88 0 0 0 23.642.16z" fill="#F8997C"/><path d="M414.878 259.258v5.067l-2.563 3.133" fill="#ADCEE1"/><path d="m312.911 197.546 99.057 61.338a6.139 6.139 0 0 1 2.899 5.335 6.135 6.135 0 0 1-3.113 5.213l-150.308 84.913a13.773 13.773 0 0 1-13.75-.12l-98.617-57.885c-7.168-5.88-6.675-16.948 0-17.414l149.454-81.606a13.987 13.987 0 0 1 14.378.226z" fill="#88D3D8"/><path d="m312.911 193.319 99.057 61.338a6.139 6.139 0 0 1 2.899 5.335 6.135 6.135 0 0 1-3.113 5.213l-150.321 84.926a13.776 13.776 0 0 1-13.75-.12l-98.617-57.898a7.625 7.625 0 0 1-2.781-10.397 7.64 7.64 0 0 1 2.781-2.79l149.453-85.833a14 14 0 0 1 14.392.226z" fill="#fff"/><path d="m319.065 207.374 36.219 22.535a4.366 4.366 0 0 1 2.06 3.788 4.361 4.361 0 0 1-2.207 3.706l-130.003 74.018a12.795 12.795 0 0 1-12.776 0c-8.357-4.867-22.695-13.627-31.546-19.014a5.325 5.325 0 0 1-1.8-7.199 5.34 5.34 0 0 1 1.907-1.922c26.3-15.268 112.14-65.098 130.83-76.006a7.088 7.088 0 0 1 7.316.094zM317.049 268.552l-45.39 25.508a4.541 4.541 0 0 0-1.685 1.646 4.537 4.537 0 0 0 1.618 6.221l26.7 15.615a6.041 6.041 0 0 0 6.035 0l46.471-26.469a3.78 3.78 0 0 0 1.92-3.293 3.788 3.788 0 0 0-1.92-3.294l-27.781-16.001a6.036 6.036 0 0 0-5.968.067z" fill="#F7941D"/><path opacity=".1" d="m319.065 207.374 36.219 22.535a4.366 4.366 0 0 1 2.06 3.788 4.361 4.361 0 0 1-2.207 3.706l-130.003 74.018a12.795 12.795 0 0 1-12.776 0c-8.357-4.867-22.695-13.627-31.546-19.014a5.325 5.325 0 0 1-1.8-7.199 5.34 5.34 0 0 1 1.907-1.922c26.3-15.268 112.14-65.098 130.83-76.006a7.088 7.088 0 0 1 7.316.094zM317.049 268.552l-45.39 25.508a4.541 4.541 0 0 0-1.685 1.646 4.537 4.537 0 0 0 1.618 6.221l26.7 15.615a6.041 6.041 0 0 0 6.035 0l46.471-26.469a3.78 3.78 0 0 0 1.92-3.293 3.788 3.788 0 0 0-1.92-3.294l-27.781-16.001a6.036 6.036 0 0 0-5.968.067z" fill="#053855"/><path opacity=".32" d="m390.594 257.991-68.766 41.883-66.816-39.856 65.335-40.163" fill="url(#a)"/><path d="M363.774 236.296v31.069h2.296l.494-31.869M376.87 224.348l4.606 33.776h-2.309l-4.82-32.522" fill="gray"/><path d="M330.359 247.963s-2.149 7.028-2.67 7.748c-.521.72-7.516 5.333-7.396 6.787.12 1.453 2.777 2.027 4.432 1.907 1.656-.12 11.188-4.094 11.788-5.267.601-1.174.601-11.175.601-11.175h-6.755zM341.667 256.191s-2.15 7.027-2.67 7.747c-.521.72-7.516 5.334-7.396 6.787.12 1.454 2.776 2.027 4.432 1.907 1.655-.12 11.187-4.094 11.788-5.267.601-1.174.601-11.174.601-11.174h-6.755z" fill="#5C2D1D"/><path d="M378.112 192.226c-.614 1.707-4.005 27.615-4.005 27.615l-3.471-1.16 4.499-26.588" fill="gray"/><path d="m376.87 224.348.054-4.173-3.698 1.266 1.121 4.161" fill="#A9CBF8"/><path d="M368.46 217.881s9.345 3.561 8.357 7.067c-.988 3.507-8.344 12.095-13.096 11.348-4.753-.747-10.547-4.867-10.547-4.867" fill="#4A42A4"/><path d="M368.46 213.614s9.345 3.561 8.357 7.067c-.988 3.507-8.344 12.095-13.096 11.348-4.753-.747-10.547-4.867-10.547-4.867M372.185 181.079s8.971 2.24 9.879 7.4c.907 5.16 1.174 14.668-11.575 10.974-12.749-3.693-6.675-13.254-6.675-13.254" fill="#A6ACED"/><path d="M360.21 192.093s3.164 13.334.814 20.415c-2.35 7.08-15.7 12.827-15.7 12.827l-5.633 28.629a18.162 18.162 0 0 1-13.951-1.654s1.562-25.255 3.925-31.669c2.363-6.413 20.732-19.001 20.732-19.001" fill="#895851"/><path d="M360.744 209.001s-18.37 12.587-20.733 19.001c-2.363 6.414-3.925 31.669-3.925 31.669a18.167 18.167 0 0 0 13.898 1.64l5.633-28.629s9.559-2.667 11.895-9.84c2.336-7.174 1.335-17.935 1.335-17.935" fill="#895851"/><path d="M368.046 209.267c3.137-7.614 4.486-27.402 2.55-29.789-4.005-4.947-12.496-4.333-12.496-4.333s-4.926-2.947-9.051.533c-3.07 2.6-.881 18.522 0 28.642 5.353 4.947 11.294 6.334 18.997 4.947z" fill="#8CC63F"/><path d="M354.883 211.547c-3.311 3.294-6.849 6.468-9.919 9.988-2.67 3.053-3.725 6.92-4.766 10.761a187.859 187.859 0 0 0-4.566 27.335c0 .56.815.547.868 0 .83-8.859 2.276-17.65 4.326-26.309 1.108-4.227 2.202-8.427 5.233-11.707 3.03-3.28 6.288-6.307 9.438-9.454a.442.442 0 0 0-.614-.614z" fill="#5C2D1D"/><path d="m391.155 233.376 1.709-.934-78.405-44.856-50.997 28.895.681.4v38.136a.387.387 0 0 0 .761 0v-37.696l75.428 44.003.186-.106v27.455a.383.383 0 0 0 .134.226.384.384 0 0 0 .494 0 .377.377 0 0 0 .133-.226v-27.855l49.395-27.136v24.309a.39.39 0 0 0 .628.226.388.388 0 0 0 .133-.226v-24.269a.344.344 0 0 0-.28-.346z" fill="#DD654A"/><path d="m391.155 233.376 1.709-.934-78.405-44.856-50.997 28.895.681.4v38.136a.387.387 0 0 0 .761 0v-37.696l75.428 44.003.186-.106v27.455a.383.383 0 0 0 .134.226.384.384 0 0 0 .494 0 .377.377 0 0 0 .133-.226v-27.855l49.395-27.136v24.309a.39.39 0 0 0 .628.226.388.388 0 0 0 .133-.226v-24.269a.344.344 0 0 0-.28-.346z" fill="#DD654A"/><path opacity=".32" d="m312.47 215.068-24.631 13.707c4.126 2.601 20.68 11.495 24.658 14.295l25.458-16.268-4.205-10.188-21.28-1.546z" fill="url(#b)"/><path d="m332.815 229.789 17.943-10.441-23.376-13.414-18.33 9.414" fill="#B3B3B3"/><path d="M328.183 209.201s4.713 20.854 4.646 20.588c-.067-.267-23.229-12.694-23.389-13.135-.161-.44-6.128-21.601-6.128-21.601l24.871 14.148z" fill="#fff"/><path d="m321.401 205.347 4.833-2.907 5.754 4.787-4.326 1.814-6.261-3.694z" fill="#FFE0CE"/><path d="M324.071 202.04s6.395 2.254 5.861 8.174c0 0 9.972-4.147 12.188-6.787 2.217-2.64 6.916-8.361 6.916-8.361v-19.401s-12.015 18.668-14.685 20.975c-2.083 1.826-10.28 5.4-10.28 5.4z" fill="#8CC63F"/><path d="M357.086 172.491v4.881c.294.746.707 1.266 1.335 1.2 1.949-.214 4.258-3.107 4.258-3.107l.348-4.534-5.941 1.56z" fill="#F9C7AF"/><path d="M366.551 161.237c-1.215-2.667-3.605-3.107-6.074-2.667a5.432 5.432 0 0 0-1.869-.853 5.866 5.866 0 0 0-5.901 1.947 3.997 3.997 0 0 0-1.989.253c-1.856.787-2.083 2.76-1.656 4.494v.2a5.488 5.488 0 0 0 3.191 4.36l9.639 4.8a7.002 7.002 0 0 0 2.563-2.4 3.7 3.7 0 0 0 .4-1.267l.187-.2a8.525 8.525 0 0 0 1.509-8.667z" fill="#895851"/><path d="M352.093 166.531c.24 1.027 1.976 10.787 6.381 9.961 4.406-.827 4.686-7.321 4.686-7.321s-4.005-1.08-4.312-2.574c-.307-1.493-.16-2.146-2.109-2.546-1.949-.4-5.06.773-4.646 2.48z" fill="#FFE0CE"/><path d="m348.248 196.026-.641-9.534-2.87 13.801 3.511-4.267z" fill="#6D9928"/><path d="M348.569 212.281a3.216 3.216 0 0 0-1.109.333c-1.041.507-2.202.84-3.23 1.334a10.673 10.673 0 0 0-4.005 4.253c-.214.454-1.095 2.134-.641 2.6.454.467 1.508 0 1.508 0s.001.961.281 1.174c.28.213 1.335-.56 1.335-.56s.454 1.173 1.095.893c.64-.28 1.762-1.947 1.762-1.947s-.12 1.334.44 1.334c.561 0 2.924-3.267 2.924-3.267l5.02-2.667s-1.482-1.6-1.629-1.747a7.596 7.596 0 0 0-2.35-1.586 2.916 2.916 0 0 0-1.401-.147z" fill="#FFE0CE"/><path d="M347.714 216.508a11.39 11.39 0 0 0-2.496 4.267c0 .2.24.28.307.08a11.017 11.017 0 0 1 2.416-4.121c.134-.146-.08-.373-.227-.226zM346.246 215.534a12.313 12.313 0 0 0-3.698 6.161.157.157 0 0 0 .027.109.16.16 0 0 0 .28-.029 11.995 11.995 0 0 1 3.618-6.014c.146-.093-.081-.373-.227-.227zM344.75 215.188a12.92 12.92 0 0 0-3.858 5.733c0 .2.241.28.307.08a12.621 12.621 0 0 1 3.778-5.6c.161-.12-.066-.347-.227-.213z" fill="#5C2D1D"/><path d="M370.89 195.773s-1.843 11.734-4.312 14.441c-2.47 2.707-13.35 7.521-13.35 7.521s-2.67-4.787-5.607-5.908c0 0 11.08-6.227 11.36-7.4" fill="#8CC63F"/><path d="M361.785 187.906a102.702 102.702 0 0 1-.814 7.56 36.29 36.29 0 0 1-1.229 6.667c-.814 2.307-3.898 3.681-5.86 4.947-1.963 1.267-4.165 2.667-6.261 4.001-.481.293 0 1.04.44.746a250.54 250.54 0 0 0 7.303-4.613c1.628-1.067 4.111-2.174 4.979-4a27.232 27.232 0 0 0 1.415-7.001c.414-2.667.708-5.454.908-8.201.013-.666-.881-.653-.881-.106z" fill="#6D9928"/><path d="M133.126 136.275a5.238 5.238 0 0 0-2.67 4.574v128.823c-.187 2.667 2.79 5.053 5.207 3.68l52.812-30.029c2.123-1.213 98.79-55.537 98.79-57.977l5.327-135.024a2.537 2.537 0 0 0-1.212-2.26 2.536 2.536 0 0 0-2.566-.047c-23.576 13.361-144.968 82.046-155.688 88.26z" fill="#F7941D"/><path opacity=".6" d="M143.606 148.209v108.142l11.654-7.414V141.489l-11.654 6.72z" fill="#fff"/><path d="m159.439 124.848-24.137 14.134a1.53 1.53 0 0 0-.761 1.334v128.689a1.044 1.044 0 0 0 1.043 1.033c.183-.001.361-.049.519-.14l151.363-88.006a6.91 6.91 0 0 1-2.844 5.52c-2.897 1.84-148.906 85.82-148.906 85.82s-4.005 1.827-5.206-2.987V140.849a5.334 5.334 0 0 1 2.189-4.294c2.336-1.693 152.657-89.153 152.657-89.153s5.474-2 7.289 1.334l-117.76 67.218" fill="#124577"/><path d="M297.171 21.28c-8.437 4.987-29.37 17.335-35.551 20.948a3.485 3.485 0 0 0-1.736 3.04v85.607a2.48 2.48 0 0 0 3.458 2.44l35.097-20.001a3.998 3.998 0 0 0 2.31-3.574V23.32a2.379 2.379 0 0 0-3.578-2.04z" fill="#FFA513"/><path d="m219.127 154.983 1.802 41.15s25.966-7.254 27.741-43.803l-1.174-7.467-28.369 10.12z" fill="#CEE831"/><path d="m219.127 154.983 7.049-38.669s18.69 1.027 19.838 31.029l-26.887 7.64z" fill="#FFA513"/><path d="M214.708 203.667a23.083 23.083 0 0 1-4.005-.36c-8.918-1.587-16.247-8.241-20.639-18.668-4.139-9.868-5.193-22.135-2.977-34.509 4.686-26.722 22.508-45.137 40.531-41.87 8.917 1.587 16.246 8.24 20.639 18.668 4.138 9.881 5.193 22.135 2.977 34.509-2.216 12.374-7.45 23.508-14.685 31.349-6.635 7.121-14.245 10.881-21.841 10.881zm8.931-87.5c-12.268 0-24.951 15.361-28.515 35.349-1.949 10.814-1.068 21.482 2.456 29.869 3.271 7.814 8.424 12.721 14.485 13.801s12.602-1.733 18.383-8c6.234-6.668 10.68-16.348 12.669-27.189 1.936-10.841 1.055-21.455-2.47-29.882-3.257-7.787-8.357-12.668-14.485-13.748a14.417 14.417 0 0 0-2.523-.227v.027z" fill="#F2F2F2"/><path d="m266.292 50.349 27.929-15.908M266.292 56.71l27.929-15.922M265.612 64.67l27.928-15.921M265.612 71.017l27.928-15.921M268.282 98.326l27.928-15.908M268.282 104.686l27.928-15.92M267.601 112.634l27.928-15.908M267.601 118.994l27.928-15.921" stroke="#F2F2F2" stroke-width="1.015" stroke-miterlimit="10"/><path d="M268.215 92.752s.44-12.214 5.607-11.28c5.166.933 5.14 3.08 8.41 0 3.271-3.081 1.669-11.628 6.862-11.628s4.446 9.814 4.446 9.814l-25.325 13.094z" fill="#fff"/><path opacity=".6" d="M161.388 139.075v88.34l9.519-6.054v-87.779l-9.519 5.493z" fill="#fff"/><path d="m114.369 197.546 56.511-32.549a2.96 2.96 0 0 1 2.968.003 2.959 2.959 0 0 1 1.478 2.571v43.056a4.698 4.698 0 0 1-2.39 4.081l-55.643 31.402a3.529 3.529 0 0 1-4.854-1.233 3.52 3.52 0 0 1-.486-1.767v-41.337a4.918 4.918 0 0 1 2.416-4.227z" fill="#CEE831"/><path d="m141.684 198.92 27.928-15.921M141.684 205.267l27.928-15.908M141.003 213.228l27.928-15.922M141.003 219.588l27.928-15.921" stroke="#fff" stroke-width="1.015" stroke-miterlimit="10"/><path d="M119.549 225.335v14.095l3.698-2.347v-13.801c-1.268.64-2.51 1.306-3.698 2.053zM126.945 216.321v19.042l3.698-2.361v-18.481l-3.698 1.8zM134.354 206.494v24.948l3.698-2.347V205a82.22 82.22 0 0 1-3.698 1.494zM434.449 121.207a.745.745 0 0 0-.694-.08.693.693 0 0 0-.494.641v.066c-.294.254-.841.614-.975.734-.454.382-.899.777-1.335 1.186-.707.654-1.335 1.334-2.029 2.067l-1.562-2.973c-.4-.76-1.548-.094-1.148.666l1.989 3.787a.672.672 0 0 0 .798.297.675.675 0 0 0 .257-.163 38.736 38.736 0 0 1 3.204-3.254c.641-.573 2.109-1.333 2.283-2.213a.696.696 0 0 0-.294-.761zM412.515 139.529l-3.471 3.533c-.681.694-.481.694-.975-.16l-1.134-1.96a.67.67 0 0 0-1.176.189.669.669 0 0 0 .028.478c.534.92 1.468 3.734 2.91 3.414.841-.187 1.468-1.161 2.042-1.747l2.737-2.787c.614-.64-.32-1.574-.961-.96zM432.767 178.638c-.441.4-.894.76-1.335 1.134-.254-.614-.507-1.214-.734-1.827-.227-.613-1.589-.453-1.335.36.253.813.614 1.573.934 2.347-.574.44-1.161.88-1.762 1.333-.601.454 0 1.627.668 1.147.667-.48 1.094-.787 1.642-1.2.307.667.6 1.333.934 1.987.334.653 1.535.093 1.148-.667s-.681-1.427-1.001-2.147c.587-.48 1.175-.96 1.749-1.467.574-.506-.281-1.573-.908-1z" fill="#fff"/><path opacity=".32" d="m226.389 280.886-28.582 18.988-14.365-8.494 28.796-16.708" fill="url(#c)"/><path d="M159.893 197.88a19.952 19.952 0 0 1-4.005-.4 21.02 21.02 0 0 1-14.124-10.548 27.834 27.834 0 0 1-2.785-18.755 27.868 27.868 0 0 1 9.873-16.194 20.627 20.627 0 0 1 17.2-4.289 20.623 20.623 0 0 1 8.29 3.718 20.592 20.592 0 0 1 5.883 6.918 27.027 27.027 0 0 1 2.67 18.668c-2.416 12.281-12.309 20.882-23.002 20.882zm2.149-46.124a17.18 17.18 0 0 0-10.466 3.721 23.448 23.448 0 0 0-5.941 29.335 16.652 16.652 0 0 0 4.661 5.435 16.686 16.686 0 0 0 6.513 2.979c9.719 1.974 19.504-5.654 21.801-16.988a22.646 22.646 0 0 0-2.297-15.708 16.678 16.678 0 0 0-11.174-8.414 15.673 15.673 0 0 0-3.083-.36h-.014z" fill="#F7941D"/><path d="m181.627 181.599 35.404 17.441s1.428 4.627-1.655 5.8c-3.084 1.174-39.156-18.254-39.156-18.254" fill="#F7941D"/><g opacity=".25" fill="#000"><path d="M159.893 197.88a19.952 19.952 0 0 1-4.005-.4 21.02 21.02 0 0 1-14.124-10.548 27.834 27.834 0 0 1-2.785-18.755 27.868 27.868 0 0 1 9.873-16.194 20.627 20.627 0 0 1 17.2-4.289 20.623 20.623 0 0 1 8.29 3.718 20.592 20.592 0 0 1 5.883 6.918 27.027 27.027 0 0 1 2.67 18.668c-2.416 12.281-12.309 20.882-23.002 20.882zm2.149-46.124a17.18 17.18 0 0 0-10.466 3.721 23.448 23.448 0 0 0-5.941 29.335 16.652 16.652 0 0 0 4.661 5.435 16.686 16.686 0 0 0 6.513 2.979c9.719 1.974 19.504-5.654 21.801-16.988a22.646 22.646 0 0 0-2.297-15.708 16.678 16.678 0 0 0-11.174-8.414 15.673 15.673 0 0 0-3.083-.36h-.014z"/><path d="m181.627 181.599 35.404 17.441s1.428 4.627-1.655 5.8c-3.084 1.174-39.156-18.254-39.156-18.254"/></g><path d="M200.944 191.839a126.99 126.99 0 0 1-6.208-3.373 24.39 24.39 0 0 0-1.201-2.28 3.178 3.178 0 0 0-3.257-1.734 1.097 1.097 0 0 0-.889 1.115 1.094 1.094 0 0 0 .969 1.045l.173.2c-2.523.12-7.089.494-6.061 2.974a1.912 1.912 0 0 0-.253.24 1.6 1.6 0 0 0 .147 2.187 1.853 1.853 0 0 0 1.722.466 1.734 1.734 0 0 0 2.229.827l.628-.187a.97.97 0 0 0 .716 1.088.967.967 0 0 0 .472.006l2.082-.4c4.74 1.507 7.103 2.053 8.878 3.267.734.506 0 .693 0 0a.984.984 0 0 0 .055-1.139.992.992 0 0 0-.282-.288l-.2-.147a1.004 1.004 0 0 0 .404-.696 1 1 0 0 0-.231-.77l-.253-.294a1.136 1.136 0 0 0 .831-1.606 1.135 1.135 0 0 0-.471-.501z" fill="#FF7D09"/><path d="m225.228 264.605 1.148 16.294-2.096 1.76-2.269-.586s.293-4.307-.508-5.254c-.801-.947-2.149 3.734-2.923 3.707-.775-.027-10.013-2.494-10.146-3.627-.174-1.507 1.895-3.227 5.82-2.28 4.245 1.026 4.98-3.747 5.661-8.321" fill="#F8997C"/><path d="M218.593 267.858s4.005 1.707 10.947-2.667c0 0-2.39-21.601-2.189-25.335.2-3.733 4.365-30.589-.775-36.509-5.14-5.921-14.311 50.99-13.91 51.324" fill="#A1C3FC"/><path d="m221.957 277.446-.387-.627a2.283 2.283 0 0 0-2.243-.533c-1.108.52-.948 4.387-.948 4.387l3.845-1.441a4.186 4.186 0 0 0-.267-1.786z" fill="#9E005D"/><path d="m212.666 272.592-.401 16.321-2.203 1.56-2.202-.8s.694-4.267 0-5.334c-.695-1.066-2.497 3.521-3.271 3.414-.775-.107-9.732-3.427-9.759-4.574 0-1.52 2.203-3.027 6.007-1.706 4.126 1.426 5.34-3.254 6.422-7.748" fill="#F8997C"/><path d="m208.193 285.006-.32-.667a2.277 2.277 0 0 0-.993-.67 2.276 2.276 0 0 0-1.197-.076c-1.161.413-1.335 4.267-1.335 4.267l4.005-1.067c.077-.6.022-1.21-.16-1.787z" fill="#9E005D"/><path d="M211.33 209.681s-6.848 18.428-8.397 26.415c-1.548 7.987-1.615 37.909-1.054 38.669.56.761 7.209 2.241 11.721 2.241 4.512 0 3.871-35.376 3.871-35.376s12.216-30.923 8.945-34.31c-3.271-3.386-15.086 2.361-15.086 2.361z" fill="#A1C3FC"/><path d="M211.05 210.027c6.208 1.96 14.098-.386 17.889-5.72-.721-8.721-2.216-23.135-4.459-25.335-3.244-3.121-10.266 1.333-12.802 5.68a85.251 85.251 0 0 0-3.778 10.268l-9.559-5.441-2.897 6.787s6.555 12.335 15.406 9.521l.2 4.24z" fill="#F8997C"/><path d="M217.031 194.039a.366.366 0 0 0-.734 0 17.077 17.077 0 0 1-1.429 8.228 6.908 6.908 0 0 1-5.487 3.88c-.467 0-.467.747 0 .733a7.572 7.572 0 0 0 5.968-4c1.562-2.64 1.695-5.88 1.682-8.841z" fill="#fff"/><path d="M213.68 163.171c-.507.106-1.335.906-2.523 3.76-1.188 2.853 1.695 6.48 2.95 7.24a15.497 15.497 0 0 1 3.097 3.734s4.633 1.12 7.757-4.547c3.124-5.667-3.752-11.828-11.281-10.187z" fill="#FFB468"/><path d="M212.372 166.331s-2.336 9.48 1.108 11.641c3.444 2.16 8.09-3.587 8.531-5.881.44-2.293-2.07-7.267-9.639-5.76z" fill="#FF7D09"/><path d="M212.372 166.331s-.574 6.187 2.67 7.547c3.244 1.36 3.271 3.307 3.271 3.307s5.874-3.134 6.488-5.907c.614-2.774-7.93-7.427-12.429-4.947z" fill="#FFB468"/><path d="M223.159 173.771c-1.175 9.334 1.174 21.175-2.67 29.883-.241.533-.748 2.946-1.148 2.946l9.345-5.107c3.764-2.32 6.488-3.827 5.153-9.72-1.335-5.894-8.905-18.455-8.905-18.455l-1.775.453z" fill="#FFB468"/><path d="M208.861 190.333a71.267 71.267 0 0 0-1.335 7.467c0 .466.667.466.734 0a69.7 69.7 0 0 1 1.335-7.267c.093-.48-.614-.68-.734-.2z" fill="#fff"/><path d="m222.064 177.972-.881-1.88a41.731 41.731 0 0 1-5.34 2.293c-2.203.667-1.589 3.214-1.589 3.214s5.1.013 7.81-3.627z" fill="#5FAD00"/><defs><linearGradient id="a" x1="311.896" y1="277.939" x2="340.508" y2="228.106" gradientUnits="userSpaceOnUse"><stop stop-opacity="0"/><stop offset=".99" stop-color="#006837"/></linearGradient><linearGradient id="b" x1="308.372" y1="233.202" x2="326.889" y2="211.033" gradientUnits="userSpaceOnUse"><stop stop-opacity="0"/><stop offset=".99" stop-color="#1A1A1A"/></linearGradient><linearGradient id="c" x1="200.263" y1="294.22" x2="212.71" y2="272.553" gradientUnits="userSpaceOnUse"><stop stop-opacity="0"/><stop offset=".99" stop-color="#006837"/></linearGradient></defs></svg>