<svg width="1349" height="229" fill="none" xmlns="http://www.w3.org/2000/svg"><path d="M-21.65 68.003c21.663 2.709 56.834 22.375 103.983 13 47.15-9.375 71.361-60.083 122.334-58 50.972 2.084 71.361 65.5 122.333 68 50.972 2.5 71.361-55.375 122.333-56 50.973-.625 71.361 47.792 122.334 53 50.972 5.209 71.361-31.75 122.333-28 50.972 3.75 71.361 45.375 122.333 46 50.973.625 71.361-39.25 122.334-43 50.972-3.75 71.363 25.625 122.333 25s71.36-33 122.33-28c50.98 5 75.19 50.334 122.34 52 47.15 1.667 82.32-34.833 103.98-44" stroke="url(#a)" stroke-width="2" stroke-linecap="round"/><path d="M-21.65 243.003c21.663 2.709 56.834 22.375 103.983 13 47.15-9.375 71.361-60.083 122.334-58 50.972 2.084 71.361 65.5 122.333 68 50.972 2.5 71.361-55.375 122.333-56 50.973-.625 71.361 47.792 122.334 53 50.972 5.209 71.361-31.75 122.333-28 50.972 3.75 71.361 45.375 122.333 46 50.973.625 71.361-39.25 122.334-43 50.972-3.75 71.363 25.625 122.333 25s71.36-33 122.33-28c50.98 5 75.19 50.334 122.34 52 47.15 1.667 82.32-34.833 103.98-44" stroke="url(#b)" stroke-width="2" stroke-linecap="round"/><path d="M-21.65 208.003c21.663 2.709 56.834 22.375 103.983 13 47.15-9.375 71.361-60.083 122.334-58 50.972 2.084 71.361 65.5 122.333 68 50.972 2.5 71.361-55.375 122.333-56 50.973-.625 71.361 47.792 122.334 53 50.972 5.209 71.361-31.75 122.333-28 50.972 3.75 71.361 45.375 122.333 46 50.973.625 71.361-39.25 122.334-43 50.972-3.75 71.363 25.625 122.333 25s71.36-33 122.33-28c50.98 5 75.19 50.334 122.34 52 47.15 1.667 82.32-34.833 103.98-44" stroke="url(#c)" stroke-width="2" stroke-linecap="round"/><path d="M-21.65 173.003c21.663 2.709 56.834 22.375 103.983 13 47.15-9.375 71.361-60.083 122.334-58 50.972 2.084 71.361 65.5 122.333 68 50.972 2.5 71.361-55.375 122.333-56 50.973-.625 71.361 47.792 122.334 53 50.972 5.209 71.361-31.75 122.333-28 50.972 3.75 71.361 45.375 122.333 46 50.973.625 71.361-39.25 122.334-43 50.972-3.75 71.363 25.625 122.333 25s71.36-33 122.33-28c50.98 5 75.19 50.334 122.34 52 47.15 1.667 82.32-34.833 103.98-44" stroke="url(#d)" stroke-width="2" stroke-linecap="round"/><path d="M-21.65 138.003c21.663 2.709 56.834 22.375 103.983 13 47.15-9.375 71.361-60.083 122.334-58 50.972 2.084 71.361 65.5 122.333 68 50.972 2.5 71.361-55.375 122.333-56 50.973-.625 71.361 47.792 122.334 53 50.972 5.209 71.361-31.75 122.333-28 50.972 3.75 71.361 45.375 122.333 46 50.973.625 71.361-39.25 122.334-43 50.972-3.75 71.363 25.625 122.333 25s71.36-33 122.33-28c50.98 5 75.19 50.334 122.34 52 47.15 1.667 82.32-34.833 103.98-44" stroke="url(#e)" stroke-width="2" stroke-linecap="round"/><path d="M-21.65 103.003c21.663 2.709 56.834 22.375 103.983 13 47.15-9.375 71.361-60.083 122.334-58 50.972 2.084 71.361 65.5 122.333 68 50.972 2.5 71.361-55.375 122.333-56 50.973-.625 71.361 47.792 122.334 53 50.972 5.209 71.361-31.75 122.333-28 50.972 3.75 71.361 45.375 122.333 46 50.973.625 71.361-39.25 122.334-43 50.972-3.75 71.363 25.625 122.333 25s71.36-33 122.33-28c50.98 5 75.19 50.334 122.34 52 47.15 1.667 82.32-34.833 103.98-44" stroke="url(#f)" stroke-width="2" stroke-linecap="round"/><defs><linearGradient id="a" x1="-104.34" y1="-341.997" x2="59.191" y2="-341.997" gradientUnits="userSpaceOnUse"><stop stop-color="#F7941D"/><stop offset="1" stop-color="#FFB366"/></linearGradient><linearGradient id="b" x1="-104.34" y1="-166.997" x2="59.191" y2="-166.997" gradientUnits="userSpaceOnUse"><stop stop-color="#F7941D"/><stop offset="1" stop-color="#FFB366"/></linearGradient><linearGradient id="c" x1="-104.34" y1="-201.997" x2="59.191" y2="-201.997" gradientUnits="userSpaceOnUse"><stop stop-color="#F7941D"/><stop offset="1" stop-color="#FFB366"/></linearGradient><linearGradient id="d" x1="-104.34" y1="-236.997" x2="59.191" y2="-236.997" gradientUnits="userSpaceOnUse"><stop stop-color="#F7941D"/><stop offset="1" stop-color="#FFB366"/></linearGradient><linearGradient id="e" x1="-104.34" y1="-271.997" x2="59.191" y2="-271.997" gradientUnits="userSpaceOnUse"><stop stop-color="#F7941D"/><stop offset="1" stop-color="#FFB366"/></linearGradient><linearGradient id="f" x1="-104.34" y1="-306.997" x2="59.191" y2="-306.997" gradientUnits="userSpaceOnUse"><stop stop-color="#F7941D"/><stop offset="1" stop-color="#FFB366"/></linearGradient></defs></svg>